<?xml version="1.0" encoding="UTF-8"?>
<!DOCTYPE svg PUBLIC "-//W3C//DTD SVG 1.1//EN" "http://www.w3.org/Graphics/SVG/1.1/DTD/svg11.dtd">
<svg xmlns="http://www.w3.org/2000/svg" version="1.1" width="4838px" height="2000px" style="shape-rendering:geometricPrecision; text-rendering:geometricPrecision; image-rendering:optimizeQuality; fill-rule:evenodd; clip-rule:evenodd" xmlns:xlink="http://www.w3.org/1999/xlink">
<g><path style="opacity:0.992" fill="#61ccff" d="M -0.5,-0.5 C 578.833,-0.5 1158.17,-0.5 1737.5,-0.5C 1737.5,72.5 1737.5,145.5 1737.5,218.5C 1821.5,218.5 1905.5,218.5 1989.5,218.5C 1989.5,289.833 1989.5,361.167 1989.5,432.5C 1952.5,432.5 1915.5,432.5 1878.5,432.5C 1878.5,398.167 1878.5,363.833 1878.5,329.5C 1373.17,329.5 867.833,329.5 362.5,329.5C 362.5,849.167 362.5,1368.83 362.5,1888.5C 867.833,1888.5 1373.17,1888.5 1878.5,1888.5C 1878.5,1854.5 1878.5,1820.5 1878.5,1786.5C 1915.5,1786.5 1952.5,1786.5 1989.5,1786.5C 1989.5,1857.5 1989.5,1928.5 1989.5,1999.5C 1410.17,1999.5 830.833,1999.5 251.5,1999.5C 251.5,1926.5 251.5,1853.5 251.5,1780.5C 167.5,1780.5 83.5,1780.5 -0.5,1780.5C -0.5,1186.83 -0.5,593.167 -0.5,-0.5 Z M 110.5,110.5 C 615.833,110.5 1121.17,110.5 1626.5,110.5C 1626.5,146.5 1626.5,182.5 1626.5,218.5C 1168.17,218.5 709.833,218.5 251.5,218.5C 251.5,702.167 251.5,1185.83 251.5,1669.5C 204.5,1669.5 157.5,1669.5 110.5,1669.5C 110.5,1149.83 110.5,630.167 110.5,110.5 Z"/></g>
<g><path style="opacity:0.987" fill="#61ccff" d="M 4004.5,492.5 C 4031.85,489.335 4056.51,495.835 4078.5,512C 4100.72,532.65 4109.89,558.15 4106,588.5C 4099.29,625.874 4077.46,649.041 4040.5,658C 4003.36,665.397 3972.19,655.23 3947,627.5C 3924.15,593.694 3923.82,559.694 3946,525.5C 3961.3,507.026 3980.8,496.026 4004.5,492.5 Z"/></g>
<g><path style="opacity:1" fill="#010101" d="M 2342.5,627.5 C 2342.97,628.906 2343.97,629.573 2345.5,629.5C 2346.17,629.5 2346.5,629.833 2346.5,630.5C 2346.97,631.906 2347.97,632.573 2349.5,632.5C 2354.49,636.155 2359.15,640.155 2363.5,644.5C 2363.97,645.906 2364.97,646.573 2366.5,646.5C 2370.17,649.5 2373.5,652.833 2376.5,656.5C 2379.5,660.167 2382.83,663.5 2386.5,666.5C 2388.83,668.167 2390.83,670.167 2392.5,672.5C 2393.42,675.089 2395.09,677.089 2397.5,678.5C 2398.83,679.167 2399.83,680.167 2400.5,681.5C 2400.74,683.404 2401.74,684.738 2403.5,685.5C 2404.5,685.833 2405.17,686.5 2405.5,687.5C 2405.43,689.027 2406.09,690.027 2407.5,690.5C 2409.54,691.579 2410.88,693.246 2411.5,695.5C 2411.74,697.404 2412.74,698.738 2414.5,699.5C 2414.43,701.027 2415.09,702.027 2416.5,702.5C 2416.74,704.404 2417.74,705.738 2419.5,706.5C 2419.43,708.027 2420.09,709.027 2421.5,709.5C 2421.43,711.027 2422.09,712.027 2423.5,712.5C 2423.43,714.027 2424.09,715.027 2425.5,715.5C 2425.43,717.027 2426.09,718.027 2427.5,718.5C 2427.43,720.027 2428.09,721.027 2429.5,721.5C 2429.43,723.027 2430.09,724.027 2431.5,724.5C 2432.34,724.842 2432.67,725.508 2432.5,726.5C 2432.43,728.027 2433.09,729.027 2434.5,729.5C 2435.34,729.842 2435.67,730.508 2435.5,731.5C 2435.43,733.027 2436.09,734.027 2437.5,734.5C 2439.01,736.181 2440.01,738.181 2440.5,740.5C 2440.43,742.027 2441.09,743.027 2442.5,743.5C 2456.56,769.683 2466.9,797.35 2473.5,826.5C 2473.42,829.781 2474.09,832.781 2475.5,835.5C 2495.88,933.227 2480.38,1024.89 2429,1110.5C 2423.36,1119.3 2417.19,1127.63 2410.5,1135.5C 2409.09,1135.97 2408.43,1136.97 2408.5,1138.5C 2408.17,1139.5 2407.5,1140.17 2406.5,1140.5C 2405.09,1140.97 2404.43,1141.97 2404.5,1143.5C 2402.21,1147.46 2399.21,1150.79 2395.5,1153.5C 2394.09,1153.97 2393.43,1154.97 2393.5,1156.5C 2385.5,1165.17 2377.17,1173.5 2368.5,1181.5C 2366.97,1181.43 2365.97,1182.09 2365.5,1183.5C 2310.69,1231.86 2246.69,1260.7 2173.5,1270C 2131.11,1275.48 2089.11,1273.98 2047.5,1265.5C 2044.78,1264.09 2041.78,1263.42 2038.5,1263.5C 2035.78,1262.09 2032.78,1261.42 2029.5,1261.5C 2029.17,1261.5 2028.83,1261.5 2028.5,1261.5C 2026.56,1259.84 2024.23,1259.17 2021.5,1259.5C 1994.42,1252.48 1968.76,1242.15 1944.5,1228.5C 1944.03,1227.09 1943.03,1226.43 1941.5,1226.5C 1939.85,1226.34 1938.51,1225.67 1937.5,1224.5C 1937.03,1223.09 1936.03,1222.43 1934.5,1222.5C 1933.51,1222.67 1932.84,1222.34 1932.5,1221.5C 1932.03,1220.09 1931.03,1219.43 1929.5,1219.5C 1928.51,1219.67 1927.84,1219.34 1927.5,1218.5C 1927.03,1217.09 1926.03,1216.43 1924.5,1216.5C 1924.03,1215.09 1923.03,1214.43 1921.5,1214.5C 1921.03,1213.09 1920.03,1212.43 1918.5,1212.5C 1918.03,1211.09 1917.03,1210.43 1915.5,1210.5C 1915.03,1209.09 1914.03,1208.43 1912.5,1208.5C 1911.74,1206.74 1910.4,1205.74 1908.5,1205.5C 1908.03,1204.09 1907.03,1203.43 1905.5,1203.5C 1904.74,1201.74 1903.4,1200.74 1901.5,1200.5C 1901.03,1199.09 1900.03,1198.43 1898.5,1198.5C 1897.5,1198.17 1896.83,1197.5 1896.5,1196.5C 1895.74,1194.74 1894.4,1193.74 1892.5,1193.5C 1891.83,1193.5 1891.5,1193.17 1891.5,1192.5C 1891.03,1191.09 1890.03,1190.43 1888.5,1190.5C 1887.17,1189.83 1886.17,1188.83 1885.5,1187.5C 1884.42,1185.41 1882.75,1184.08 1880.5,1183.5C 1878.83,1182.5 1877.5,1181.17 1876.5,1179.5C 1874.76,1176.76 1872.43,1174.76 1869.5,1173.5C 1865.83,1170.5 1862.5,1167.17 1859.5,1163.5C 1858.92,1161.25 1857.59,1159.58 1855.5,1158.5C 1853.17,1156.83 1851.17,1154.83 1849.5,1152.5C 1849.57,1150.97 1848.91,1149.97 1847.5,1149.5C 1843.49,1145.49 1839.82,1141.15 1836.5,1136.5C 1836.57,1134.97 1835.91,1133.97 1834.5,1133.5C 1795.21,1081.52 1772.04,1022.85 1765,957.5C 1760.61,917.73 1762.44,878.396 1770.5,839.5C 1771.91,836.781 1772.58,833.781 1772.5,830.5C 1779.25,797.573 1790.92,766.573 1807.5,737.5C 1808.91,737.027 1809.57,736.027 1809.5,734.5C 1809.66,732.847 1810.33,731.514 1811.5,730.5C 1812.91,730.027 1813.57,729.027 1813.5,727.5C 1813.33,726.508 1813.66,725.842 1814.5,725.5C 1815.91,725.027 1816.57,724.027 1816.5,722.5C 1817.91,722.027 1818.57,721.027 1818.5,719.5C 1819.91,719.027 1820.57,718.027 1820.5,716.5C 1820.33,715.508 1820.66,714.842 1821.5,714.5C 1823.26,713.738 1824.26,712.404 1824.5,710.5C 1825.91,710.027 1826.57,709.027 1826.5,707.5C 1827.91,707.027 1828.57,706.027 1828.5,704.5C 1830.26,703.738 1831.26,702.404 1831.5,700.5C 1831.74,698.596 1832.74,697.262 1834.5,696.5C 1836.26,695.738 1837.26,694.404 1837.5,692.5C 1838.91,692.027 1839.57,691.027 1839.5,689.5C 1839.83,688.5 1840.5,687.833 1841.5,687.5C 1842.91,687.027 1843.57,686.027 1843.5,684.5C 1844.17,683.167 1845.17,682.167 1846.5,681.5C 1848.26,680.738 1849.26,679.404 1849.5,677.5C 1850.5,675.833 1851.83,674.5 1853.5,673.5C 1855.91,672.089 1857.58,670.089 1858.5,667.5C 1860.5,664.833 1862.83,662.5 1865.5,660.5C 1870.77,656.895 1875.44,652.562 1879.5,647.5C 1879.5,646.833 1879.83,646.5 1880.5,646.5C 1883.43,645.243 1885.76,643.243 1887.5,640.5C 1889.75,639.92 1891.42,638.587 1892.5,636.5C 1892.5,635.833 1892.83,635.5 1893.5,635.5C 1895.4,635.262 1896.74,634.262 1897.5,632.5C 1897.5,631.833 1897.83,631.5 1898.5,631.5C 1900.4,631.262 1901.74,630.262 1902.5,628.5C 1904.4,628.262 1905.74,627.262 1906.5,625.5C 1908.03,625.573 1909.03,624.906 1909.5,623.5C 1911.4,623.262 1912.74,622.262 1913.5,620.5C 1915.03,620.573 1916.03,619.906 1916.5,618.5C 1918.03,618.573 1919.03,617.906 1919.5,616.5C 1921.03,616.573 1922.03,615.906 1922.5,614.5C 1924.03,614.573 1925.03,613.906 1925.5,612.5C 1925.84,611.662 1926.51,611.328 1927.5,611.5C 1929.03,611.573 1930.03,610.906 1930.5,609.5C 1930.84,608.662 1931.51,608.328 1932.5,608.5C 1934.03,608.573 1935.03,607.906 1935.5,606.5C 1935.84,605.662 1936.51,605.328 1937.5,605.5C 1939.03,605.573 1940.03,604.906 1940.5,603.5C 1942.18,601.992 1944.18,600.992 1946.5,600.5C 1948.03,600.573 1949.03,599.906 1949.5,598.5C 1973.24,585.805 1998.24,576.138 2024.5,569.5C 2027.23,569.829 2029.56,569.163 2031.5,567.5C 2128.96,544.766 2221.63,557.266 2309.5,605C 2320.95,611.972 2331.95,619.472 2342.5,627.5 Z M 2175.5,697.5 C 2177.6,698.612 2179.93,699.279 2182.5,699.5C 2199.83,704.497 2216.5,711.164 2232.5,719.5C 2232.97,720.906 2233.97,721.573 2235.5,721.5C 2235.84,722.338 2236.51,722.672 2237.5,722.5C 2237.97,723.906 2238.97,724.573 2240.5,724.5C 2240.84,725.338 2241.51,725.672 2242.5,725.5C 2242.97,726.906 2243.97,727.573 2245.5,727.5C 2245.97,728.906 2246.97,729.573 2248.5,729.5C 2249.26,731.262 2250.6,732.262 2252.5,732.5C 2252.97,733.906 2253.97,734.573 2255.5,734.5C 2255.5,735.167 2255.83,735.5 2256.5,735.5C 2257.26,737.262 2258.6,738.262 2260.5,738.5C 2260.83,739.5 2261.5,740.167 2262.5,740.5C 2263.26,742.262 2264.6,743.262 2266.5,743.5C 2267.83,745.5 2269.5,747.167 2271.5,748.5C 2274.17,751.833 2277.17,754.833 2280.5,757.5C 2282.17,759.833 2284.17,761.833 2286.5,763.5C 2286.43,765.027 2287.09,766.027 2288.5,766.5C 2327.62,816.268 2344.45,872.935 2339,936.5C 2337.91,947.568 2336.41,958.568 2334.5,969.5C 2333.39,971.599 2332.72,973.933 2332.5,976.5C 2327.47,995.26 2320.47,1013.26 2311.5,1030.5C 2310.09,1030.97 2309.43,1031.97 2309.5,1033.5C 2308.33,1034.51 2307.66,1035.85 2307.5,1037.5C 2306.09,1037.97 2305.43,1038.97 2305.5,1040.5C 2304.09,1040.97 2303.43,1041.97 2303.5,1043.5C 2302.09,1043.97 2301.43,1044.97 2301.5,1046.5C 2300.09,1046.97 2299.43,1047.97 2299.5,1049.5C 2298.09,1049.97 2297.43,1050.97 2297.5,1052.5C 2295.46,1053.58 2294.12,1055.25 2293.5,1057.5C 2291.74,1058.26 2290.74,1059.6 2290.5,1061.5C 2289.17,1062.17 2288.17,1063.17 2287.5,1064.5C 2285.74,1065.26 2284.74,1066.6 2284.5,1068.5C 2282.83,1069.5 2281.5,1070.83 2280.5,1072.5C 2276.83,1075.5 2273.5,1078.83 2270.5,1082.5C 2269.5,1082.83 2268.83,1083.5 2268.5,1084.5C 2265.91,1085.42 2263.91,1087.09 2262.5,1089.5C 2261.83,1089.5 2261.5,1089.83 2261.5,1090.5C 2259.6,1090.74 2258.26,1091.74 2257.5,1093.5C 2254.53,1095.15 2251.86,1097.15 2249.5,1099.5C 2247.97,1099.43 2246.97,1100.09 2246.5,1101.5C 2244.97,1101.43 2243.97,1102.09 2243.5,1103.5C 2241.97,1103.43 2240.97,1104.09 2240.5,1105.5C 2239.51,1105.33 2238.84,1105.66 2238.5,1106.5C 2236.97,1106.43 2235.97,1107.09 2235.5,1108.5C 2233.85,1108.66 2232.51,1109.33 2231.5,1110.5C 2229.97,1110.43 2228.97,1111.09 2228.5,1112.5C 2213.37,1119.9 2197.71,1125.9 2181.5,1130.5C 2178.93,1130.72 2176.6,1131.39 2174.5,1132.5C 2114.54,1144.95 2058.21,1135.78 2005.5,1105C 1997.06,1099.72 1989.06,1093.89 1981.5,1087.5C 1981.03,1086.09 1980.03,1085.43 1978.5,1085.5C 1972.83,1079.17 1966.83,1073.17 1960.5,1067.5C 1960.26,1065.6 1959.26,1064.26 1957.5,1063.5C 1957.17,1062.5 1956.5,1061.83 1955.5,1061.5C 1954.92,1059.25 1953.59,1057.58 1951.5,1056.5C 1951.26,1054.6 1950.26,1053.26 1948.5,1052.5C 1948.57,1050.97 1947.91,1049.97 1946.5,1049.5C 1946.57,1047.97 1945.91,1046.97 1944.5,1046.5C 1944.57,1044.97 1943.91,1043.97 1942.5,1043.5C 1942.57,1041.97 1941.91,1040.97 1940.5,1040.5C 1940.57,1038.97 1939.91,1037.97 1938.5,1037.5C 1938.67,1036.51 1938.34,1035.84 1937.5,1035.5C 1937.57,1033.97 1936.91,1032.97 1935.5,1032.5C 1926,1014.68 1918.67,996.009 1913.5,976.5C 1913.28,973.933 1912.61,971.599 1911.5,969.5C 1898.53,906.122 1908.03,846.455 1940,790.5C 1944,784.344 1948.16,778.344 1952.5,772.5C 1953.91,772.027 1954.57,771.027 1954.5,769.5C 1955.83,768.833 1956.83,767.833 1957.5,766.5C 1958.91,766.027 1959.57,765.027 1959.5,763.5C 1966.5,757.167 1973.17,750.5 1979.5,743.5C 1981.03,743.573 1982.03,742.906 1982.5,741.5C 2023.41,708.695 2070.24,692.028 2123,691.5C 2140.6,692.215 2158.1,694.215 2175.5,697.5 Z"/></g>
<g><path style="opacity:1" fill="#010101" d="M 3695.5,643.5 C 3695.97,644.906 3696.97,645.573 3698.5,645.5C 3701.17,647.5 3703.5,649.833 3705.5,652.5C 3710.5,658.167 3715.83,663.5 3721.5,668.5C 3723.83,670.167 3725.83,672.167 3727.5,674.5C 3728.08,676.749 3729.41,678.415 3731.5,679.5C 3732.83,680.167 3733.83,681.167 3734.5,682.5C 3734.43,684.027 3735.09,685.027 3736.5,685.5C 3737.17,685.5 3737.5,685.833 3737.5,686.5C 3738.08,688.749 3739.41,690.415 3741.5,691.5C 3741.74,693.404 3742.74,694.738 3744.5,695.5C 3746.26,696.262 3747.26,697.596 3747.5,699.5C 3747.74,701.404 3748.74,702.738 3750.5,703.5C 3750.43,705.027 3751.09,706.027 3752.5,706.5C 3752.74,708.404 3753.74,709.738 3755.5,710.5C 3755.43,712.027 3756.09,713.027 3757.5,713.5C 3757.43,715.027 3758.09,716.027 3759.5,716.5C 3759.43,718.027 3760.09,719.027 3761.5,719.5C 3762.34,719.842 3762.67,720.508 3762.5,721.5C 3762.43,723.027 3763.09,724.027 3764.5,724.5C 3764.43,726.027 3765.09,727.027 3766.5,727.5C 3767.34,727.842 3767.67,728.508 3767.5,729.5C 3767.43,731.027 3768.09,732.027 3769.5,732.5C 3771.01,734.181 3772.01,736.181 3772.5,738.5C 3772.43,740.027 3773.09,741.027 3774.5,741.5C 3788.7,766.583 3799.03,793.25 3805.5,821.5C 3805.17,824.228 3805.84,826.562 3807.5,828.5C 3807.5,829.167 3807.5,829.833 3807.5,830.5C 3807.42,833.781 3808.09,836.781 3809.5,839.5C 3828.37,934.587 3813.21,1023.92 3764,1107.5C 3758.97,1115.59 3753.47,1123.25 3747.5,1130.5C 3746.09,1130.97 3745.43,1131.97 3745.5,1133.5C 3744.3,1135.91 3742.63,1137.91 3740.5,1139.5C 3739.09,1139.97 3738.43,1140.97 3738.5,1142.5C 3736.21,1146.46 3733.21,1149.79 3729.5,1152.5C 3728.09,1152.97 3727.43,1153.97 3727.5,1155.5C 3718.83,1164.83 3709.83,1173.83 3700.5,1182.5C 3698.97,1182.43 3697.97,1183.09 3697.5,1184.5C 3696.5,1186.17 3695.17,1187.5 3693.5,1188.5C 3691.97,1188.43 3690.97,1189.09 3690.5,1190.5C 3634.99,1236.64 3570.99,1263.47 3498.5,1271C 3458.74,1275.2 3419.41,1273.36 3380.5,1265.5C 3377.78,1264.09 3374.78,1263.42 3371.5,1263.5C 3369.44,1263.48 3367.44,1263.15 3365.5,1262.5C 3363.56,1260.84 3361.23,1260.17 3358.5,1260.5C 3330.68,1253.75 3304.34,1243.41 3279.5,1229.5C 3279.03,1228.09 3278.03,1227.43 3276.5,1227.5C 3274.18,1227.01 3272.18,1226.01 3270.5,1224.5C 3270.03,1223.09 3269.03,1222.43 3267.5,1222.5C 3266.51,1222.67 3265.84,1222.34 3265.5,1221.5C 3265.03,1220.09 3264.03,1219.43 3262.5,1219.5C 3260.57,1218.89 3258.9,1217.89 3257.5,1216.5C 3257.03,1215.09 3256.03,1214.43 3254.5,1214.5C 3254.03,1213.09 3253.03,1212.43 3251.5,1212.5C 3251.03,1211.09 3250.03,1210.43 3248.5,1210.5C 3247.74,1208.74 3246.4,1207.74 3244.5,1207.5C 3244.03,1206.09 3243.03,1205.43 3241.5,1205.5C 3240.74,1203.74 3239.4,1202.74 3237.5,1202.5C 3236.74,1200.74 3235.4,1199.74 3233.5,1199.5C 3232.74,1197.74 3231.4,1196.74 3229.5,1196.5C 3228.42,1194.41 3226.75,1193.08 3224.5,1192.5C 3223.83,1192.5 3223.5,1192.17 3223.5,1191.5C 3223.03,1190.09 3222.03,1189.43 3220.5,1189.5C 3219.17,1188.83 3218.17,1187.83 3217.5,1186.5C 3216.42,1184.41 3214.75,1183.08 3212.5,1182.5C 3210.5,1181.17 3208.83,1179.5 3207.5,1177.5C 3205.43,1174.43 3202.76,1172.09 3199.5,1170.5C 3197.57,1166.9 3194.9,1163.9 3191.5,1161.5C 3188.5,1159.17 3185.83,1156.5 3183.5,1153.5C 3183.57,1151.97 3182.91,1150.97 3181.5,1150.5C 3144.28,1108.07 3119.11,1059.07 3106,1003.5C 3092.26,945.489 3092.09,887.489 3105.5,829.5C 3107.16,827.562 3107.83,825.228 3107.5,822.5C 3114.11,793.99 3124.44,766.99 3138.5,741.5C 3139.91,741.027 3140.57,740.027 3140.5,738.5C 3140.99,736.181 3141.99,734.181 3143.5,732.5C 3144.91,732.027 3145.57,731.027 3145.5,729.5C 3145.33,728.508 3145.66,727.842 3146.5,727.5C 3147.91,727.027 3148.57,726.027 3148.5,724.5C 3148.33,723.508 3148.66,722.842 3149.5,722.5C 3150.91,722.027 3151.57,721.027 3151.5,719.5C 3152.91,719.027 3153.57,718.027 3153.5,716.5C 3154.91,716.027 3155.57,715.027 3155.5,713.5C 3156.91,713.027 3157.57,712.027 3157.5,710.5C 3158.91,710.027 3159.57,709.027 3159.5,707.5C 3161.26,706.738 3162.26,705.404 3162.5,703.5C 3163.91,703.027 3164.57,702.027 3164.5,700.5C 3166.26,699.738 3167.26,698.404 3167.5,696.5C 3169.26,695.738 3170.26,694.404 3170.5,692.5C 3170.5,691.833 3170.83,691.5 3171.5,691.5C 3173.26,690.738 3174.26,689.404 3174.5,687.5C 3174.5,686.833 3174.83,686.5 3175.5,686.5C 3176.91,686.027 3177.57,685.027 3177.5,683.5C 3178.17,682.167 3179.17,681.167 3180.5,680.5C 3182.26,679.738 3183.26,678.404 3183.5,676.5C 3184.5,674.833 3185.83,673.5 3187.5,672.5C 3190.57,670.431 3192.91,667.764 3194.5,664.5C 3195.83,662.5 3197.5,660.833 3199.5,659.5C 3203.77,656.899 3207.44,653.566 3210.5,649.5C 3210.83,648.5 3211.5,647.833 3212.5,647.5C 3215.43,646.243 3217.76,644.243 3219.5,641.5C 3219.5,640.833 3219.83,640.5 3220.5,640.5C 3222.75,639.92 3224.42,638.587 3225.5,636.5C 3227.75,635.92 3229.42,634.587 3230.5,632.5C 3232.4,632.262 3233.74,631.262 3234.5,629.5C 3236.4,629.262 3237.74,628.262 3238.5,626.5C 3238.5,625.833 3238.83,625.5 3239.5,625.5C 3241.03,625.573 3242.03,624.906 3242.5,623.5C 3244.03,623.573 3245.03,622.906 3245.5,621.5C 3246.44,620.026 3247.77,619.026 3249.5,618.5C 3251.03,618.573 3252.03,617.906 3252.5,616.5C 3253.9,615.11 3255.57,614.11 3257.5,613.5C 3259.03,613.573 3260.03,612.906 3260.5,611.5C 3262.03,611.573 3263.03,610.906 3263.5,609.5C 3263.84,608.662 3264.51,608.328 3265.5,608.5C 3267.03,608.573 3268.03,607.906 3268.5,606.5C 3269.51,605.326 3270.85,604.66 3272.5,604.5C 3274.03,604.573 3275.03,603.906 3275.5,602.5C 3277.85,600.659 3280.52,599.326 3283.5,598.5C 3285.03,598.573 3286.03,597.906 3286.5,596.5C 3313.01,582.591 3341.01,572.591 3370.5,566.5C 3373.78,566.58 3376.78,565.913 3379.5,564.5C 3482.69,544.305 3578.36,562.805 3666.5,620C 3676.93,626.94 3686.6,634.773 3695.5,643.5 Z M 3504.5,696.5 C 3506.6,697.612 3508.93,698.279 3511.5,698.5C 3531.01,703.67 3549.68,711.003 3567.5,720.5C 3567.97,721.906 3568.97,722.573 3570.5,722.5C 3570.84,723.338 3571.51,723.672 3572.5,723.5C 3572.97,724.906 3573.97,725.573 3575.5,725.5C 3575.97,726.906 3576.97,727.573 3578.5,727.5C 3578.97,728.906 3579.97,729.573 3581.5,729.5C 3581.97,730.906 3582.97,731.573 3584.5,731.5C 3585.26,733.262 3586.6,734.262 3588.5,734.5C 3589.26,736.262 3590.6,737.262 3592.5,737.5C 3592.5,738.167 3592.83,738.5 3593.5,738.5C 3594.58,740.587 3596.25,741.92 3598.5,742.5C 3599.17,743.833 3600.17,744.833 3601.5,745.5C 3605.83,750.5 3610.5,755.167 3615.5,759.5C 3616.83,761.5 3618.5,763.167 3620.5,764.5C 3620.43,766.027 3621.09,767.027 3622.5,767.5C 3656.06,810.666 3673.06,859.832 3673.5,915C 3672.89,931.948 3671.23,948.781 3668.5,965.5C 3667.23,967.905 3666.57,970.572 3666.5,973.5C 3661.88,990.685 3655.88,1007.35 3648.5,1023.5C 3647.09,1023.97 3646.43,1024.97 3646.5,1026.5C 3644.99,1028.18 3643.99,1030.18 3643.5,1032.5C 3642.09,1032.97 3641.43,1033.97 3641.5,1035.5C 3640.66,1035.84 3640.33,1036.51 3640.5,1037.5C 3639.09,1037.97 3638.43,1038.97 3638.5,1040.5C 3637.66,1040.84 3637.33,1041.51 3637.5,1042.5C 3636.09,1042.97 3635.43,1043.97 3635.5,1045.5C 3634.09,1045.97 3633.43,1046.97 3633.5,1048.5C 3631.74,1049.26 3630.74,1050.6 3630.5,1052.5C 3628.74,1053.26 3627.74,1054.6 3627.5,1056.5C 3625.74,1057.26 3624.74,1058.6 3624.5,1060.5C 3623.83,1060.5 3623.5,1060.83 3623.5,1061.5C 3621.41,1062.58 3620.08,1064.25 3619.5,1066.5C 3617.17,1068.17 3615.17,1070.17 3613.5,1072.5C 3609.17,1076.17 3605.17,1080.17 3601.5,1084.5C 3600.83,1084.5 3600.5,1084.83 3600.5,1085.5C 3597.91,1086.42 3595.91,1088.09 3594.5,1090.5C 3592.25,1091.08 3590.58,1092.41 3589.5,1094.5C 3587.6,1094.74 3586.26,1095.74 3585.5,1097.5C 3583.97,1097.43 3582.97,1098.09 3582.5,1099.5C 3580.97,1099.43 3579.97,1100.09 3579.5,1101.5C 3577.97,1101.43 3576.97,1102.09 3576.5,1103.5C 3574.97,1103.43 3573.97,1104.09 3573.5,1105.5C 3571.97,1105.43 3570.97,1106.09 3570.5,1107.5C 3568.85,1107.66 3567.51,1108.33 3566.5,1109.5C 3564.97,1109.43 3563.97,1110.09 3563.5,1111.5C 3548.97,1118.68 3533.97,1124.68 3518.5,1129.5C 3513.27,1130.39 3508.27,1131.72 3503.5,1133.5C 3444.84,1144.5 3389.84,1135 3338.5,1105C 3332.01,1100.67 3325.68,1096.17 3319.5,1091.5C 3319.03,1090.09 3318.03,1089.43 3316.5,1089.5C 3315.83,1088.17 3314.83,1087.17 3313.5,1086.5C 3312.74,1084.74 3311.4,1083.74 3309.5,1083.5C 3305.17,1078.5 3300.5,1073.83 3295.5,1069.5C 3294.92,1067.25 3293.59,1065.58 3291.5,1064.5C 3291.17,1063.5 3290.5,1062.83 3289.5,1062.5C 3288.92,1060.25 3287.59,1058.58 3285.5,1057.5C 3285.26,1055.6 3284.26,1054.26 3282.5,1053.5C 3282.26,1051.6 3281.26,1050.26 3279.5,1049.5C 3279.57,1047.97 3278.91,1046.97 3277.5,1046.5C 3277.57,1044.97 3276.91,1043.97 3275.5,1043.5C 3275.57,1041.97 3274.91,1040.97 3273.5,1040.5C 3273.67,1039.51 3273.34,1038.84 3272.5,1038.5C 3272.57,1036.97 3271.91,1035.97 3270.5,1035.5C 3270.67,1034.51 3270.34,1033.84 3269.5,1033.5C 3269.57,1031.97 3268.91,1030.97 3267.5,1030.5C 3240.05,976.542 3232.55,919.875 3245,860.5C 3252.41,827.683 3266.25,798.016 3286.5,771.5C 3287.91,771.027 3288.57,770.027 3288.5,768.5C 3289.83,767.833 3290.83,766.833 3291.5,765.5C 3292.91,765.027 3293.57,764.027 3293.5,762.5C 3337.6,716.284 3391.76,692.617 3456,691.5C 3472.21,692.245 3488.38,693.912 3504.5,696.5 Z"/></g>
<g><path style="opacity:1" fill="#3b3b3b" d="M 3379.5,564.5 C 3376.78,565.913 3373.78,566.58 3370.5,566.5C 3373.22,565.087 3376.22,564.42 3379.5,564.5 Z"/></g>
<g><path style="opacity:0.996" fill="#464646" d="M 2031.5,567.5 C 2029.56,569.163 2027.23,569.829 2024.5,569.5C 2026.6,568.388 2028.93,567.721 2031.5,567.5 Z"/></g>
<g><path style="opacity:0.993" fill="#61ccff" d="M 4837.5,886.5 C 4837.5,905.167 4837.5,923.833 4837.5,942.5C 4830.47,1030.06 4795.8,1104.56 4733.5,1166C 4667.67,1225.74 4590,1257.41 4500.5,1261C 4411.5,1261.5 4322.5,1261.67 4233.5,1261.5C 4233.5,1030.5 4233.5,799.5 4233.5,568.5C 4328.85,568.034 4424.18,568.534 4519.5,570C 4615.66,578.498 4695.5,618.664 4759,690.5C 4805.36,747.583 4831.53,812.916 4837.5,886.5 Z M 4375.5,703.5 C 4414.17,703.333 4452.83,703.5 4491.5,704C 4549.9,705.561 4599.74,726.728 4641,767.5C 4677.76,809.564 4695.92,858.731 4695.5,915C 4695.9,979.501 4672.57,1033.5 4625.5,1077C 4593.19,1103.31 4556.19,1118.98 4514.5,1124C 4468.19,1125.45 4421.86,1125.95 4375.5,1125.5C 4375.5,984.833 4375.5,844.167 4375.5,703.5 Z"/></g>
<g><path style="opacity:1" fill="#010101" d="M 1371.5,569.5 C 1371.5,593.833 1371.5,618.167 1371.5,642.5C 1398.52,642.152 1425.52,642.652 1452.5,644C 1506.36,648.616 1555.36,666.283 1599.5,697C 1603.36,700.032 1607.03,703.198 1610.5,706.5C 1610.97,707.906 1611.97,708.573 1613.5,708.5C 1615.17,709.5 1616.5,710.833 1617.5,712.5C 1617.97,713.906 1618.97,714.573 1620.5,714.5C 1626.5,719.833 1632.17,725.5 1637.5,731.5C 1637.74,733.404 1638.74,734.738 1640.5,735.5C 1641.5,735.833 1642.17,736.5 1642.5,737.5C 1643.08,739.749 1644.41,741.415 1646.5,742.5C 1647.5,742.833 1648.17,743.5 1648.5,744.5C 1648.43,746.027 1649.09,747.027 1650.5,747.5C 1650.74,749.404 1651.74,750.738 1653.5,751.5C 1653.74,753.404 1654.74,754.738 1656.5,755.5C 1656.43,757.027 1657.09,758.027 1658.5,758.5C 1658.43,760.027 1659.09,761.027 1660.5,761.5C 1660.43,763.027 1661.09,764.027 1662.5,764.5C 1662.43,766.027 1663.09,767.027 1664.5,767.5C 1665.34,767.842 1665.67,768.508 1665.5,769.5C 1665.43,771.027 1666.09,772.027 1667.5,772.5C 1668.67,773.514 1669.34,774.847 1669.5,776.5C 1669.43,778.027 1670.09,779.027 1671.5,779.5C 1681.58,797.001 1688.91,815.668 1693.5,835.5C 1693.17,838.228 1693.84,840.562 1695.5,842.5C 1695.5,843.167 1695.5,843.833 1695.5,844.5C 1695.42,847.781 1696.09,850.781 1697.5,853.5C 1710.23,918.652 1701.39,980.985 1671,1040.5C 1663.8,1053.51 1655.3,1065.51 1645.5,1076.5C 1644.09,1076.97 1643.43,1077.97 1643.5,1079.5C 1642.5,1081.17 1641.17,1082.5 1639.5,1083.5C 1638.09,1083.97 1637.43,1084.97 1637.5,1086.5C 1632.83,1091.83 1627.83,1096.83 1622.5,1101.5C 1620.97,1101.43 1619.97,1102.09 1619.5,1103.5C 1588.67,1131.26 1553,1150.76 1512.5,1162C 1492.49,1167.47 1472.16,1171.14 1451.5,1173C 1424.85,1174.35 1398.19,1174.85 1371.5,1174.5C 1371.5,1203.17 1371.5,1231.83 1371.5,1260.5C 1324.5,1260.5 1277.5,1260.5 1230.5,1260.5C 1230.5,1231.5 1230.5,1202.5 1230.5,1173.5C 1209.17,1173.5 1187.83,1173.5 1166.5,1173.5C 1145.52,1173.13 1124.86,1170.46 1104.5,1165.5C 1102.56,1163.84 1100.23,1163.17 1097.5,1163.5C 1075.37,1158.24 1054.37,1150.24 1034.5,1139.5C 1034.03,1138.09 1033.03,1137.43 1031.5,1137.5C 1029.18,1137.01 1027.18,1136.01 1025.5,1134.5C 1025.03,1133.09 1024.03,1132.43 1022.5,1132.5C 1021.51,1132.67 1020.84,1132.34 1020.5,1131.5C 1020.03,1130.09 1019.03,1129.43 1017.5,1129.5C 1017.03,1128.09 1016.03,1127.43 1014.5,1127.5C 1014.03,1126.09 1013.03,1125.43 1011.5,1125.5C 1011.03,1124.09 1010.03,1123.43 1008.5,1123.5C 1008.03,1122.09 1007.03,1121.43 1005.5,1121.5C 1004.74,1119.74 1003.4,1118.74 1001.5,1118.5C 1000.74,1116.74 999.404,1115.74 997.5,1115.5C 996.738,1113.74 995.404,1112.74 993.5,1112.5C 992.738,1110.74 991.404,1109.74 989.5,1109.5C 988.5,1109.17 987.833,1108.5 987.5,1107.5C 986.738,1105.74 985.404,1104.74 983.5,1104.5C 980.5,1102.17 977.833,1099.5 975.5,1096.5C 973.833,1094.17 971.833,1092.17 969.5,1090.5C 966.5,1088.17 963.833,1085.5 961.5,1082.5C 961.573,1080.97 960.906,1079.97 959.5,1079.5C 956.45,1077.45 954.117,1074.78 952.5,1071.5C 952.573,1069.97 951.906,1068.97 950.5,1068.5C 949.833,1068.5 949.5,1068.17 949.5,1067.5C 949.573,1065.97 948.906,1064.97 947.5,1064.5C 920.707,1027.65 905.207,986.314 901,940.5C 898.235,911.947 899.402,883.614 904.5,855.5C 905.913,852.781 906.58,849.781 906.5,846.5C 906.5,845.833 906.5,845.167 906.5,844.5C 908.163,842.562 908.829,840.228 908.5,837.5C 913.236,816.616 920.902,796.949 931.5,778.5C 932.906,778.027 933.573,777.027 933.5,775.5C 933.66,773.847 934.326,772.514 935.5,771.5C 936.906,771.027 937.573,770.027 937.5,768.5C 938.906,768.027 939.573,767.027 939.5,765.5C 939.328,764.508 939.662,763.842 940.5,763.5C 941.906,763.027 942.573,762.027 942.5,760.5C 944.262,759.738 945.262,758.404 945.5,756.5C 946.906,756.027 947.573,755.027 947.5,753.5C 949.262,752.738 950.262,751.404 950.5,749.5C 952.262,748.738 953.262,747.404 953.5,745.5C 955.587,744.415 956.92,742.749 957.5,740.5C 957.5,739.833 957.833,739.5 958.5,739.5C 960.262,738.738 961.262,737.404 961.5,735.5C 962.5,733.833 963.833,732.5 965.5,731.5C 970.833,726.833 975.833,721.833 980.5,716.5C 981.167,715.167 982.167,714.167 983.5,713.5C 986.089,712.581 988.089,710.914 989.5,708.5C 991.749,707.92 993.415,706.587 994.5,704.5C 994.5,703.833 994.833,703.5 995.5,703.5C 997.404,703.262 998.738,702.262 999.5,700.5C 1001.4,700.262 1002.74,699.262 1003.5,697.5C 1005.03,697.573 1006.03,696.906 1006.5,695.5C 1006.5,694.833 1006.83,694.5 1007.5,694.5C 1009.03,694.573 1010.03,693.906 1010.5,692.5C 1012.03,692.573 1013.03,691.906 1013.5,690.5C 1014.9,689.11 1016.57,688.11 1018.5,687.5C 1020.03,687.573 1021.03,686.906 1021.5,685.5C 1021.84,684.662 1022.51,684.328 1023.5,684.5C 1025.03,684.573 1026.03,683.906 1026.5,682.5C 1027.51,681.326 1028.85,680.66 1030.5,680.5C 1032.03,680.573 1033.03,679.906 1033.5,678.5C 1056.37,665.764 1080.7,656.764 1106.5,651.5C 1109.78,651.58 1112.78,650.913 1115.5,649.5C 1131.47,645.649 1147.81,643.649 1164.5,643.5C 1186.5,643.5 1208.5,643.5 1230.5,643.5C 1230.5,618.833 1230.5,594.167 1230.5,569.5C 1277.5,569.5 1324.5,569.5 1371.5,569.5 Z M 1229.5,778.5 C 1229.5,865.167 1229.5,951.833 1229.5,1038.5C 1207.83,1038.5 1186.17,1038.5 1164.5,1038.5C 1127.97,1035.73 1096.97,1021.4 1071.5,995.5C 1070.92,993.251 1069.59,991.585 1067.5,990.5C 1067.57,988.973 1066.91,987.973 1065.5,987.5C 1065.57,985.973 1064.91,984.973 1063.5,984.5C 1063.57,982.973 1062.91,981.973 1061.5,981.5C 1061.34,979.847 1060.67,978.514 1059.5,977.5C 1059.57,975.973 1058.91,974.973 1057.5,974.5C 1038.43,929.939 1038.93,885.606 1059,841.5C 1075.22,813.293 1099.05,794.793 1130.5,786C 1140.98,782.972 1151.64,780.972 1162.5,780C 1184.82,778.764 1207.15,778.264 1229.5,778.5 Z M 1502.5,798.5 C 1502.97,799.906 1503.97,800.573 1505.5,800.5C 1505.97,801.906 1506.97,802.573 1508.5,802.5C 1508.97,803.906 1509.97,804.573 1511.5,804.5C 1512.26,806.262 1513.6,807.262 1515.5,807.5C 1515.83,808.5 1516.5,809.167 1517.5,809.5C 1518.26,811.262 1519.6,812.262 1521.5,812.5C 1523.5,815.167 1525.83,817.5 1528.5,819.5C 1528.43,821.027 1529.09,822.027 1530.5,822.5C 1547,843.155 1556.17,866.822 1558,893.5C 1561.2,925.006 1555.36,954.673 1540.5,982.5C 1539.09,982.973 1538.43,983.973 1538.5,985.5C 1537.09,985.973 1536.43,986.973 1536.5,988.5C 1534.46,989.579 1533.12,991.246 1532.5,993.5C 1530.09,994.911 1528.42,996.911 1527.5,999.5C 1525.5,1000.83 1523.83,1002.5 1522.5,1004.5C 1519.91,1005.42 1517.91,1007.09 1516.5,1009.5C 1515.83,1009.5 1515.5,1009.83 1515.5,1010.5C 1513.6,1010.74 1512.26,1011.74 1511.5,1013.5C 1509.97,1013.43 1508.97,1014.09 1508.5,1015.5C 1506.97,1015.43 1505.97,1016.09 1505.5,1017.5C 1504.51,1017.33 1503.84,1017.66 1503.5,1018.5C 1501.97,1018.43 1500.97,1019.09 1500.5,1020.5C 1490.72,1025.06 1480.72,1029.06 1470.5,1032.5C 1467.93,1032.72 1465.6,1033.39 1463.5,1034.5C 1455.55,1035.9 1447.55,1037.06 1439.5,1038C 1416.84,1038.5 1394.17,1038.67 1371.5,1038.5C 1371.5,951.833 1371.5,865.167 1371.5,778.5C 1397.22,778.028 1422.88,778.861 1448.5,781C 1467.47,783.935 1485.47,789.769 1502.5,798.5 Z"/></g>
<g><path style="opacity:0.965" fill="#343434" d="M 3059.5,569.5 C 3059.17,569.5 3058.83,569.5 3058.5,569.5C 2879.17,569.5 2699.83,569.5 2520.5,569.5C 2520.5,614.167 2520.5,658.833 2520.5,703.5C 2519.5,658.67 2519.17,613.67 2519.5,568.5C 2699.67,568.167 2879.67,568.5 3059.5,569.5 Z"/></g>
<g><path style="opacity:1" fill="#000000" d="M 3058.5,569.5 C 3058.5,613.833 3058.5,658.167 3058.5,702.5C 2992,702.168 2925.66,702.501 2859.5,703.5C 2859.5,889.167 2859.5,1074.83 2859.5,1260.5C 2812.5,1260.5 2765.5,1260.5 2718.5,1260.5C 2718.83,1074.67 2718.5,888.999 2717.5,703.5C 2651.83,703.5 2586.17,703.5 2520.5,703.5C 2520.5,658.833 2520.5,614.167 2520.5,569.5C 2699.83,569.5 2879.17,569.5 3058.5,569.5 Z"/></g>
<g><path style="opacity:0.965" fill="#4c4c4c" d="M 3286.5,596.5 C 3286.03,597.906 3285.03,598.573 3283.5,598.5C 3283.97,597.094 3284.97,596.427 3286.5,596.5 Z"/></g>
<g><path style="opacity:0.961" fill="#4e4e4e" d="M 1949.5,598.5 C 1949.03,599.906 1948.03,600.573 1946.5,600.5C 1946.97,599.094 1947.97,598.427 1949.5,598.5 Z"/></g>
<g><path style="opacity:0.98" fill="#444444" d="M 3275.5,602.5 C 3275.03,603.906 3274.03,604.573 3272.5,604.5C 3272.97,603.094 3273.97,602.427 3275.5,602.5 Z"/></g>
<g><path style="opacity:0.965" fill="#4b4b4b" d="M 1940.5,603.5 C 1940.03,604.906 1939.03,605.573 1937.5,605.5C 1937.97,604.094 1938.97,603.427 1940.5,603.5 Z"/></g>
<g><path style="opacity:0.988" fill="#3f3f3f" d="M 1935.5,606.5 C 1935.03,607.906 1934.03,608.573 1932.5,608.5C 1932.97,607.094 1933.97,606.427 1935.5,606.5 Z"/></g>
<g><path style="opacity:0.973" fill="#494949" d="M 3268.5,606.5 C 3268.03,607.906 3267.03,608.573 3265.5,608.5C 3265.97,607.094 3266.97,606.427 3268.5,606.5 Z"/></g>
<g><path style="opacity:0.98" fill="#434343" d="M 1930.5,609.5 C 1930.03,610.906 1929.03,611.573 1927.5,611.5C 1927.97,610.094 1928.97,609.427 1930.5,609.5 Z"/></g>
<g><path style="opacity:0.961" fill="#4d4d4d" d="M 3263.5,609.5 C 3263.03,610.906 3262.03,611.573 3260.5,611.5C 3260.97,610.094 3261.97,609.427 3263.5,609.5 Z"/></g>
<g><path style="opacity:0.988" fill="#3e3e3e" d="M 3260.5,611.5 C 3260.03,612.906 3259.03,613.573 3257.5,613.5C 3257.97,612.094 3258.97,611.427 3260.5,611.5 Z"/></g>
<g><path style="opacity:0.937" fill="#525252" d="M 1925.5,612.5 C 1925.03,613.906 1924.03,614.573 1922.5,614.5C 1922.97,613.094 1923.97,612.427 1925.5,612.5 Z"/></g>
<g><path style="opacity:0.965" fill="#4b4b4b" d="M 1922.5,614.5 C 1922.03,615.906 1921.03,616.573 1919.5,616.5C 1919.97,615.094 1920.97,614.427 1922.5,614.5 Z"/></g>
<g><path style="opacity:0.965" fill="#494949" d="M 1919.5,616.5 C 1919.03,617.906 1918.03,618.573 1916.5,618.5C 1916.97,617.094 1917.97,616.427 1919.5,616.5 Z"/></g>
<g><path style="opacity:0.925" fill="#545454" d="M 3252.5,616.5 C 3252.03,617.906 3251.03,618.573 3249.5,618.5C 3249.97,617.094 3250.97,616.427 3252.5,616.5 Z"/></g>
<g><path style="opacity:0.957" fill="#4e4e4e" d="M 1916.5,618.5 C 1916.03,619.906 1915.03,620.573 1913.5,620.5C 1913.97,619.094 1914.97,618.427 1916.5,618.5 Z"/></g>
<g><path style="opacity:0.933" fill="#484848" d="M 1913.5,620.5 C 1912.74,622.262 1911.4,623.262 1909.5,623.5C 1910.26,621.738 1911.6,620.738 1913.5,620.5 Z"/></g>
<g><path style="opacity:0.984" fill="#404040" d="M 3245.5,621.5 C 3245.03,622.906 3244.03,623.573 3242.5,623.5C 3242.97,622.094 3243.97,621.427 3245.5,621.5 Z"/></g>
<g><path style="opacity:0.976" fill="#454545" d="M 1909.5,623.5 C 1909.03,624.906 1908.03,625.573 1906.5,625.5C 1906.97,624.094 1907.97,623.427 1909.5,623.5 Z"/></g>
<g><path style="opacity:0.945" fill="#505050" d="M 3242.5,623.5 C 3242.03,624.906 3241.03,625.573 3239.5,625.5C 3239.97,624.094 3240.97,623.427 3242.5,623.5 Z"/></g>
<g><path style="opacity:0.922" fill="#4c4c4c" d="M 1906.5,625.5 C 1905.74,627.262 1904.4,628.262 1902.5,628.5C 1903.26,626.738 1904.6,625.738 1906.5,625.5 Z"/></g>
<g><path style="opacity:0.008" fill="#696969" d="M 2342.5,627.5 C 2344.03,627.427 2345.03,628.094 2345.5,629.5C 2343.97,629.573 2342.97,628.906 2342.5,627.5 Z"/></g>
<g><path style="opacity:0.965" fill="#3f3f3f" d="M 3238.5,626.5 C 3237.74,628.262 3236.4,629.262 3234.5,629.5C 3235.26,627.738 3236.6,626.738 3238.5,626.5 Z"/></g>
<g><path style="opacity:0.91" fill="#4d4d4d" d="M 1902.5,628.5 C 1901.74,630.262 1900.4,631.262 1898.5,631.5C 1899.26,629.738 1900.6,628.738 1902.5,628.5 Z"/></g>
<g><path style="opacity:0.008" fill="#696969" d="M 2346.5,630.5 C 2348.03,630.427 2349.03,631.094 2349.5,632.5C 2347.97,632.573 2346.97,631.906 2346.5,630.5 Z"/></g>
<g><path style="opacity:0.965" fill="#414141" d="M 3234.5,629.5 C 3233.74,631.262 3232.4,632.262 3230.5,632.5C 3231.26,630.738 3232.6,629.738 3234.5,629.5 Z"/></g>
<g><path style="opacity:0.957" fill="#424242" d="M 1897.5,632.5 C 1896.74,634.262 1895.4,635.262 1893.5,635.5C 1894.26,633.738 1895.6,632.738 1897.5,632.5 Z"/></g>
<g><path style="opacity:1" fill="#3a3a3a" d="M 3230.5,632.5 C 3229.42,634.587 3227.75,635.92 3225.5,636.5C 3226.58,634.413 3228.25,633.08 3230.5,632.5 Z"/></g>
<g><path style="opacity:1" fill="#353535" d="M 1892.5,636.5 C 1891.42,638.587 1889.75,639.92 1887.5,640.5C 1888.58,638.413 1890.25,637.08 1892.5,636.5 Z"/></g>
<g><path style="opacity:0.992" fill="#3f3f3f" d="M 3225.5,636.5 C 3224.42,638.587 3222.75,639.92 3220.5,640.5C 3221.58,638.413 3223.25,637.08 3225.5,636.5 Z"/></g>
<g><path style="opacity:0.753" fill="#525252" d="M 1371.5,569.5 C 1324.5,569.5 1277.5,569.5 1230.5,569.5C 1230.5,594.167 1230.5,618.833 1230.5,643.5C 1208.5,643.5 1186.5,643.5 1164.5,643.5C 1185.99,642.503 1207.66,642.169 1229.5,642.5C 1229.5,617.833 1229.5,593.167 1229.5,568.5C 1277,568.168 1324.34,568.501 1371.5,569.5 Z"/></g>
<g><path style="opacity:0.976" fill="#404040" d="M 1887.5,640.5 C 1885.76,643.243 1883.43,645.243 1880.5,646.5C 1882.24,643.757 1884.57,641.757 1887.5,640.5 Z"/></g>
<g><path style="opacity:0.008" fill="#6a6a6a" d="M 3695.5,643.5 C 3697.03,643.427 3698.03,644.094 3698.5,645.5C 3696.97,645.573 3695.97,644.906 3695.5,643.5 Z"/></g>
<g><path style="opacity:0.008" fill="#6a6a6a" d="M 2363.5,644.5 C 2365.03,644.427 2366.03,645.094 2366.5,646.5C 2364.97,646.573 2363.97,645.906 2363.5,644.5 Z"/></g>
<g><path style="opacity:0.976" fill="#404040" d="M 3219.5,641.5 C 3217.76,644.243 3215.43,646.243 3212.5,647.5C 3214.24,644.757 3216.57,642.757 3219.5,641.5 Z"/></g>
<g><path style="opacity:1" fill="#3c3c3c" d="M 1115.5,649.5 C 1112.78,650.913 1109.78,651.58 1106.5,651.5C 1109.22,650.087 1112.22,649.42 1115.5,649.5 Z"/></g>
<g><path style="opacity:0.008" fill="#5d5d5d" d="M 3705.5,652.5 C 3711.83,656.833 3717.17,662.167 3721.5,668.5C 3715.83,663.5 3710.5,658.167 3705.5,652.5 Z"/></g>
<g><path style="opacity:0.988" fill="#3a3a3a" d="M 1879.5,647.5 C 1875.44,652.562 1870.77,656.895 1865.5,660.5C 1869.56,655.438 1874.23,651.105 1879.5,647.5 Z"/></g>
<g><path style="opacity:0.008" fill="#626262" d="M 2376.5,656.5 C 2380.83,658.833 2384.17,662.167 2386.5,666.5C 2382.83,663.5 2379.5,660.167 2376.5,656.5 Z"/></g>
<g><path style="opacity:0.98" fill="#414141" d="M 3210.5,649.5 C 3207.44,653.566 3203.77,656.899 3199.5,659.5C 3202.56,655.434 3206.23,652.101 3210.5,649.5 Z"/></g>
<g><path style="opacity:0.949" fill="#4d4d4d" d="M 3194.5,664.5 C 3192.91,667.764 3190.57,670.431 3187.5,672.5C 3189.09,669.236 3191.43,666.569 3194.5,664.5 Z"/></g>
<g><path style="opacity:0.933" fill="#4e4e4e" d="M 1858.5,667.5 C 1857.58,670.089 1855.91,672.089 1853.5,673.5C 1854.42,670.911 1856.09,668.911 1858.5,667.5 Z"/></g>
<g><path style="opacity:0.984" fill="#4f4f4f" d="M 2392.5,672.5 C 2394.91,673.911 2396.58,675.911 2397.5,678.5C 2395.09,677.089 2393.42,675.089 2392.5,672.5 Z"/></g>
<g><path style="opacity:0.976" fill="#4f4f4f" d="M 3727.5,674.5 C 3729.59,675.585 3730.92,677.251 3731.5,679.5C 3729.41,678.415 3728.08,676.749 3727.5,674.5 Z"/></g>
<g><path style="opacity:0.969" fill="#4d4d4d" d="M 3183.5,676.5 C 3183.26,678.404 3182.26,679.738 3180.5,680.5C 3180.74,678.596 3181.74,677.262 3183.5,676.5 Z"/></g>
<g><path style="opacity:0.973" fill="#4c4c4c" d="M 1849.5,677.5 C 1849.26,679.404 1848.26,680.738 1846.5,681.5C 1846.74,679.596 1847.74,678.262 1849.5,677.5 Z"/></g>
<g><path style="opacity:0.969" fill="#494949" d="M 1033.5,678.5 C 1033.03,679.906 1032.03,680.573 1030.5,680.5C 1030.97,679.094 1031.97,678.427 1033.5,678.5 Z"/></g>
<g><path style="opacity:0.949" fill="#545454" d="M 2400.5,681.5 C 2402.26,682.262 2403.26,683.596 2403.5,685.5C 2401.74,684.738 2400.74,683.404 2400.5,681.5 Z"/></g>
<g><path style="opacity:0.98" fill="#454545" d="M 1026.5,682.5 C 1026.03,683.906 1025.03,684.573 1023.5,684.5C 1023.97,683.094 1024.97,682.427 1026.5,682.5 Z"/></g>
<g><path style="opacity:0.949" fill="#4f4f4f" d="M 3734.5,682.5 C 3735.91,682.973 3736.57,683.973 3736.5,685.5C 3735.09,685.027 3734.43,684.027 3734.5,682.5 Z"/></g>
<g><path style="opacity:0.851" fill="#525252" d="M 3177.5,683.5 C 3177.57,685.027 3176.91,686.027 3175.5,686.5C 3175.43,684.973 3176.09,683.973 3177.5,683.5 Z"/></g>
<g><path style="opacity:0.98" fill="#454545" d="M 1021.5,685.5 C 1021.03,686.906 1020.03,687.573 1018.5,687.5C 1018.97,686.094 1019.97,685.427 1021.5,685.5 Z"/></g>
<g><path style="opacity:0.816" fill="#555555" d="M 1843.5,684.5 C 1843.57,686.027 1842.91,687.027 1841.5,687.5C 1841.43,685.973 1842.09,684.973 1843.5,684.5 Z"/></g>
<g><path style="opacity:0.992" fill="#424242" d="M 3174.5,687.5 C 3174.26,689.404 3173.26,690.738 3171.5,691.5C 3171.74,689.596 3172.74,688.262 3174.5,687.5 Z"/></g>
<g><path style="opacity:0.788" fill="#595959" d="M 2405.5,687.5 C 2406.91,687.973 2407.57,688.973 2407.5,690.5C 2406.09,690.027 2405.43,689.027 2405.5,687.5 Z"/></g>
<g><path style="opacity:0.749" fill="#505050" d="M 3737.5,686.5 C 3739.59,687.585 3740.92,689.251 3741.5,691.5C 3739.41,690.415 3738.08,688.749 3737.5,686.5 Z"/></g>
<g><path style="opacity:0.937" fill="#525252" d="M 1013.5,690.5 C 1013.03,691.906 1012.03,692.573 1010.5,692.5C 1010.97,691.094 1011.97,690.427 1013.5,690.5 Z"/></g>
<g><path style="opacity:0.816" fill="#555555" d="M 1839.5,689.5 C 1839.57,691.027 1838.91,692.027 1837.5,692.5C 1837.43,690.973 1838.09,689.973 1839.5,689.5 Z"/></g>
<g><path style="opacity:0.996" fill="#424242" d="M 3741.5,691.5 C 3743.26,692.262 3744.26,693.596 3744.5,695.5C 3742.74,694.738 3741.74,693.404 3741.5,691.5 Z"/></g>
<g><path style="opacity:0.925" fill="#555555" d="M 1010.5,692.5 C 1010.03,693.906 1009.03,694.573 1007.5,694.5C 1007.97,693.094 1008.97,692.427 1010.5,692.5 Z"/></g>
<g><path style="opacity:0.996" fill="#3e3e3e" d="M 1837.5,692.5 C 1837.26,694.404 1836.26,695.738 1834.5,696.5C 1834.74,694.596 1835.74,693.262 1837.5,692.5 Z"/></g>
<g><path style="opacity:0.918" fill="#4d4d4d" d="M 3170.5,692.5 C 3170.26,694.404 3169.26,695.738 3167.5,696.5C 3167.74,694.596 3168.74,693.262 3170.5,692.5 Z"/></g>
<g><path style="opacity:0.984" fill="#404040" d="M 1006.5,695.5 C 1006.03,696.906 1005.03,697.573 1003.5,697.5C 1003.97,696.094 1004.97,695.427 1006.5,695.5 Z"/></g>
<g><path style="opacity:1" fill="#424242" d="M 3504.5,696.5 C 3507.23,696.171 3509.56,696.837 3511.5,698.5C 3508.93,698.279 3506.6,697.612 3504.5,696.5 Z"/></g>
<g><path style="opacity:1" fill="#434343" d="M 2175.5,697.5 C 2178.23,697.171 2180.56,697.837 2182.5,699.5C 2179.93,699.279 2177.6,698.612 2175.5,697.5 Z"/></g>
<g><path style="opacity:0.925" fill="#4b4b4b" d="M 2411.5,695.5 C 2413.26,696.262 2414.26,697.596 2414.5,699.5C 2412.74,698.738 2411.74,697.404 2411.5,695.5 Z"/></g>
<g><path style="opacity:0.937" fill="#484848" d="M 1003.5,697.5 C 1002.74,699.262 1001.4,700.262 999.5,700.5C 1000.26,698.738 1001.6,697.738 1003.5,697.5 Z"/></g>
<g><path style="opacity:0.929" fill="#4a4a4a" d="M 3167.5,696.5 C 3167.26,698.404 3166.26,699.738 3164.5,700.5C 3164.74,698.596 3165.74,697.262 3167.5,696.5 Z"/></g>
<g><path style="opacity:0.941" fill="#484848" d="M 999.5,700.5 C 998.738,702.262 997.404,703.262 995.5,703.5C 996.262,701.738 997.596,700.738 999.5,700.5 Z"/></g>
<g><path style="opacity:0.886" fill="#484848" d="M 2414.5,699.5 C 2415.91,699.973 2416.57,700.973 2416.5,702.5C 2415.09,702.027 2414.43,701.027 2414.5,699.5 Z"/></g>
<g><path style="opacity:0.957" fill="#424242" d="M 3747.5,699.5 C 3749.26,700.262 3750.26,701.596 3750.5,703.5C 3748.74,702.738 3747.74,701.404 3747.5,699.5 Z"/></g>
<g><path style="opacity:0.953" fill="#444444" d="M 1831.5,700.5 C 1831.26,702.404 1830.26,703.738 1828.5,704.5C 1828.74,702.596 1829.74,701.262 1831.5,700.5 Z"/></g>
<g><path style="opacity:0.984" fill="#1b1b1b" d="M 3058.5,569.5 C 3058.83,569.5 3059.17,569.5 3059.5,569.5C 3059.5,614.167 3059.5,658.833 3059.5,703.5C 2993.17,703.5 2926.83,703.5 2860.5,703.5C 2860.17,703.5 2859.83,703.5 2859.5,703.5C 2925.66,702.501 2992,702.168 3058.5,702.5C 3058.5,658.167 3058.5,613.833 3058.5,569.5 Z"/></g>
<g><path style="opacity:0.875" fill="#4a4a4a" d="M 3164.5,700.5 C 3164.57,702.027 3163.91,703.027 3162.5,703.5C 3162.43,701.973 3163.09,700.973 3164.5,700.5 Z"/></g>
<g><path style="opacity:0.969" fill="#404040" d="M 2416.5,702.5 C 2418.26,703.262 2419.26,704.596 2419.5,706.5C 2417.74,705.738 2416.74,704.404 2416.5,702.5 Z"/></g>
<g><path style="opacity:0.953" fill="#444444" d="M 3162.5,703.5 C 3162.26,705.404 3161.26,706.738 3159.5,707.5C 3159.74,705.596 3160.74,704.262 3162.5,703.5 Z"/></g>
<g><path style="opacity:0.91" fill="#434343" d="M 3750.5,703.5 C 3751.91,703.973 3752.57,704.973 3752.5,706.5C 3751.09,706.027 3750.43,705.027 3750.5,703.5 Z"/></g>
<g><path style="opacity:0.024" fill="#656565" d="M 1610.5,706.5 C 1612.03,706.427 1613.03,707.094 1613.5,708.5C 1611.97,708.573 1610.97,707.906 1610.5,706.5 Z"/></g>
<g><path style="opacity:0.863" fill="#4a4a4a" d="M 1828.5,704.5 C 1828.57,706.027 1827.91,707.027 1826.5,707.5C 1826.43,705.973 1827.09,704.973 1828.5,704.5 Z"/></g>
<g><path style="opacity:1" fill="#343434" d="M 994.5,704.5 C 993.415,706.587 991.749,707.92 989.5,708.5C 990.585,706.413 992.251,705.08 994.5,704.5 Z"/></g>
<g><path style="opacity:0.859" fill="#4b4b4b" d="M 2419.5,706.5 C 2420.91,706.973 2421.57,707.973 2421.5,709.5C 2420.09,709.027 2419.43,708.027 2419.5,706.5 Z"/></g>
<g><path style="opacity:0.945" fill="#454545" d="M 3752.5,706.5 C 3754.26,707.262 3755.26,708.596 3755.5,710.5C 3753.74,709.738 3752.74,708.404 3752.5,706.5 Z"/></g>
<g><path style="opacity:0.91" fill="#434343" d="M 1826.5,707.5 C 1826.57,709.027 1825.91,710.027 1824.5,710.5C 1824.43,708.973 1825.09,707.973 1826.5,707.5 Z"/></g>
<g><path style="opacity:0.796" fill="#535353" d="M 3159.5,707.5 C 3159.57,709.027 3158.91,710.027 3157.5,710.5C 3157.43,708.973 3158.09,707.973 3159.5,707.5 Z"/></g>
<g><path style="opacity:0.984" fill="#404040" d="M 989.5,708.5 C 988.089,710.914 986.089,712.581 983.5,713.5C 984.911,711.086 986.911,709.419 989.5,708.5 Z"/></g>
<g><path style="opacity:0.91" fill="#434343" d="M 2421.5,709.5 C 2422.91,709.973 2423.57,710.973 2423.5,712.5C 2422.09,712.027 2421.43,711.027 2421.5,709.5 Z"/></g>
<g><path style="opacity:0.024" fill="#636363" d="M 1617.5,712.5 C 1619.03,712.427 1620.03,713.094 1620.5,714.5C 1618.97,714.573 1617.97,713.906 1617.5,712.5 Z"/></g>
<g><path style="opacity:0.925" fill="#494949" d="M 1824.5,710.5 C 1824.26,712.404 1823.26,713.738 1821.5,714.5C 1821.74,712.596 1822.74,711.262 1824.5,710.5 Z"/></g>
<g><path style="opacity:0.827" fill="#4d4d4d" d="M 3157.5,710.5 C 3157.57,712.027 3156.91,713.027 3155.5,713.5C 3155.43,711.973 3156.09,710.973 3157.5,710.5 Z"/></g>
<g><path style="opacity:0.757" fill="#565656" d="M 3755.5,710.5 C 3756.91,710.973 3757.57,711.973 3757.5,713.5C 3756.09,713.027 3755.43,712.027 3755.5,710.5 Z"/></g>
<g><path style="opacity:0.89" fill="#444444" d="M 2423.5,712.5 C 2424.91,712.973 2425.57,713.973 2425.5,715.5C 2424.09,715.027 2423.43,714.027 2423.5,712.5 Z"/></g>
<g><path style="opacity:0.792" fill="#515151" d="M 3155.5,713.5 C 3155.57,715.027 3154.91,716.027 3153.5,716.5C 3153.43,714.973 3154.09,713.973 3155.5,713.5 Z"/></g>
<g><path style="opacity:0.733" fill="#575757" d="M 3757.5,713.5 C 3758.91,713.973 3759.57,714.973 3759.5,716.5C 3758.09,716.027 3757.43,715.027 3757.5,713.5 Z"/></g>
<g><path style="opacity:0.987" fill="#61ccff" d="M 3946.5,716.5 C 3994.17,716.5 4041.83,716.5 4089.5,716.5C 4089.5,898.167 4089.5,1079.83 4089.5,1261.5C 4041.83,1261.5 3994.17,1261.5 3946.5,1261.5C 3946.5,1079.83 3946.5,898.167 3946.5,716.5 Z"/></g>
<g><path style="opacity:0.871" fill="#484848" d="M 2425.5,715.5 C 2426.91,715.973 2427.57,716.973 2427.5,718.5C 2426.09,718.027 2425.43,717.027 2425.5,715.5 Z"/></g>
<g><path style="opacity:0.875" fill="#454545" d="M 1820.5,716.5 C 1820.57,718.027 1819.91,719.027 1818.5,719.5C 1818.43,717.973 1819.09,716.973 1820.5,716.5 Z"/></g>
<g><path style="opacity:0.753" fill="#555555" d="M 3153.5,716.5 C 3153.57,718.027 3152.91,719.027 3151.5,719.5C 3151.43,717.973 3152.09,716.973 3153.5,716.5 Z"/></g>
<g><path style="opacity:0.686" fill="#5b5b5b" d="M 3759.5,716.5 C 3760.91,716.973 3761.57,717.973 3761.5,719.5C 3760.09,719.027 3759.43,718.027 3759.5,716.5 Z"/></g>
<g><path style="opacity:0.608" fill="#5d5d5d" d="M 2232.5,719.5 C 2234.03,719.427 2235.03,720.094 2235.5,721.5C 2233.97,721.573 2232.97,720.906 2232.5,719.5 Z"/></g>
<g><path style="opacity:0.796" fill="#4f4f4f" d="M 2427.5,718.5 C 2428.91,718.973 2429.57,719.973 2429.5,721.5C 2428.09,721.027 2427.43,720.027 2427.5,718.5 Z"/></g>
<g><path style="opacity:0.769" fill="#525252" d="M 1818.5,719.5 C 1818.57,721.027 1817.91,722.027 1816.5,722.5C 1816.43,720.973 1817.09,719.973 1818.5,719.5 Z"/></g>
<g><path style="opacity:0.596" fill="#5f5f5f" d="M 3151.5,719.5 C 3151.57,721.027 3150.91,722.027 3149.5,722.5C 3149.43,720.973 3150.09,719.973 3151.5,719.5 Z"/></g>
<g><path style="opacity:0.706" fill="#555555" d="M 3567.5,720.5 C 3569.03,720.427 3570.03,721.094 3570.5,722.5C 3568.97,722.573 3567.97,721.906 3567.5,720.5 Z"/></g>
<g><path style="opacity:0.62" fill="#5e5e5e" d="M 2237.5,722.5 C 2239.03,722.427 2240.03,723.094 2240.5,724.5C 2238.97,724.573 2237.97,723.906 2237.5,722.5 Z"/></g>
<g><path style="opacity:0.655" fill="#5c5c5c" d="M 2429.5,721.5 C 2430.91,721.973 2431.57,722.973 2431.5,724.5C 2430.09,724.027 2429.43,723.027 2429.5,721.5 Z"/></g>
<g><path style="opacity:0.812" fill="#4d4d4d" d="M 3762.5,721.5 C 3763.91,721.973 3764.57,722.973 3764.5,724.5C 3763.09,724.027 3762.43,723.027 3762.5,721.5 Z"/></g>
<g><path style="opacity:0.6" fill="#5f5f5f" d="M 1816.5,722.5 C 1816.57,724.027 1815.91,725.027 1814.5,725.5C 1814.43,723.973 1815.09,722.973 1816.5,722.5 Z"/></g>
<g><path style="opacity:0.78" fill="#505050" d="M 3572.5,723.5 C 3574.03,723.427 3575.03,724.094 3575.5,725.5C 3573.97,725.573 3572.97,724.906 3572.5,723.5 Z"/></g>
<g><path style="opacity:0.835" fill="#4c4c4c" d="M 2242.5,725.5 C 2244.03,725.427 2245.03,726.094 2245.5,727.5C 2243.97,727.573 2242.97,726.906 2242.5,725.5 Z"/></g>
<g><path style="opacity:0.69" fill="#585858" d="M 3148.5,724.5 C 3148.57,726.027 3147.91,727.027 3146.5,727.5C 3146.43,725.973 3147.09,724.973 3148.5,724.5 Z"/></g>
<g><path style="opacity:0.753" fill="#565656" d="M 3575.5,725.5 C 3577.03,725.427 3578.03,726.094 3578.5,727.5C 3576.97,727.573 3575.97,726.906 3575.5,725.5 Z"/></g>
<g><path style="opacity:0.655" fill="#5b5b5b" d="M 3764.5,724.5 C 3765.91,724.973 3766.57,725.973 3766.5,727.5C 3765.09,727.027 3764.43,726.027 3764.5,724.5 Z"/></g>
<g><path style="opacity:0.933" fill="#4e4e4e" d="M 980.5,716.5 C 975.833,721.833 970.833,726.833 965.5,731.5C 969.5,725.5 974.5,720.5 980.5,716.5 Z"/></g>
<g><path style="opacity:0.855" fill="#4b4b4b" d="M 2245.5,727.5 C 2247.03,727.427 2248.03,728.094 2248.5,729.5C 2246.97,729.573 2245.97,728.906 2245.5,727.5 Z"/></g>
<g><path style="opacity:0.682" fill="#585858" d="M 2432.5,726.5 C 2433.91,726.973 2434.57,727.973 2434.5,729.5C 2433.09,729.027 2432.43,728.027 2432.5,726.5 Z"/></g>
<g><path style="opacity:0.765" fill="#565656" d="M 3578.5,727.5 C 3580.03,727.427 3581.03,728.094 3581.5,729.5C 3579.97,729.573 3578.97,728.906 3578.5,727.5 Z"/></g>
<g><path style="opacity:0.573" fill="#5f5f5f" d="M 1813.5,727.5 C 1813.57,729.027 1812.91,730.027 1811.5,730.5C 1811.43,728.973 1812.09,727.973 1813.5,727.5 Z"/></g>
<g><path style="opacity:0.918" fill="#4b4b4b" d="M 2248.5,729.5 C 2250.4,729.738 2251.74,730.738 2252.5,732.5C 2250.6,732.262 2249.26,731.262 2248.5,729.5 Z"/></g>
<g><path style="opacity:0.839" fill="#4d4d4d" d="M 3581.5,729.5 C 3583.03,729.427 3584.03,730.094 3584.5,731.5C 3582.97,731.573 3581.97,730.906 3581.5,729.5 Z"/></g>
<g><path style="opacity:0.596" fill="#5e5e5e" d="M 3145.5,729.5 C 3145.57,731.027 3144.91,732.027 3143.5,732.5C 3143.43,730.973 3144.09,729.973 3145.5,729.5 Z"/></g>
<g><path style="opacity:0.573" fill="#606060" d="M 3767.5,729.5 C 3768.91,729.973 3769.57,730.973 3769.5,732.5C 3768.09,732.027 3767.43,731.027 3767.5,729.5 Z"/></g>
<g><path style="opacity:0.957" fill="#535353" d="M 1637.5,731.5 C 1639.26,732.262 1640.26,733.596 1640.5,735.5C 1638.74,734.738 1637.74,733.404 1637.5,731.5 Z"/></g>
<g><path style="opacity:0.953" fill="#444444" d="M 3584.5,731.5 C 3586.4,731.738 3587.74,732.738 3588.5,734.5C 3586.6,734.262 3585.26,733.262 3584.5,731.5 Z"/></g>
<g><path style="opacity:0.875" fill="#4b4b4b" d="M 2252.5,732.5 C 2254.03,732.427 2255.03,733.094 2255.5,734.5C 2253.97,734.573 2252.97,733.906 2252.5,732.5 Z"/></g>
<g><path style="opacity:0.6" fill="#5d5d5d" d="M 2435.5,731.5 C 2436.91,731.973 2437.57,732.973 2437.5,734.5C 2436.09,734.027 2435.43,733.027 2435.5,731.5 Z"/></g>
<g><path style="opacity:0.996" fill="#404040" d="M 3588.5,734.5 C 3590.4,734.738 3591.74,735.738 3592.5,737.5C 3590.6,737.262 3589.26,736.262 3588.5,734.5 Z"/></g>
<g><path style="opacity:0.973" fill="#4c4c4c" d="M 961.5,735.5 C 961.262,737.404 960.262,738.738 958.5,739.5C 958.738,737.596 959.738,736.262 961.5,735.5 Z"/></g>
<g><path style="opacity:0.561" fill="#5f5f5f" d="M 1809.5,734.5 C 1809.57,736.027 1808.91,737.027 1807.5,737.5C 1807.43,735.973 1808.09,734.973 1809.5,734.5 Z"/></g>
<g><path style="opacity:0.922" fill="#4b4b4b" d="M 2256.5,735.5 C 2258.4,735.738 2259.74,736.738 2260.5,738.5C 2258.6,738.262 2257.26,737.262 2256.5,735.5 Z"/></g>
<g><path style="opacity:0.957" fill="#535353" d="M 2262.5,740.5 C 2264.4,740.738 2265.74,741.738 2266.5,743.5C 2264.6,743.262 2263.26,742.262 2262.5,740.5 Z"/></g>
<g><path style="opacity:0.631" fill="#5a5a5a" d="M 3140.5,738.5 C 3140.57,740.027 3139.91,741.027 3138.5,741.5C 3138.43,739.973 3139.09,738.973 3140.5,738.5 Z"/></g>
<g><path style="opacity:0.906" fill="#4f4f4f" d="M 3593.5,738.5 C 3595.75,739.08 3597.42,740.413 3598.5,742.5C 3596.25,741.92 3594.58,740.587 3593.5,738.5 Z"/></g>
<g><path style="opacity:0.639" fill="#595959" d="M 3772.5,738.5 C 3773.91,738.973 3774.57,739.973 3774.5,741.5C 3773.09,741.027 3772.43,740.027 3772.5,738.5 Z"/></g>
<g><path style="opacity:0.788" fill="#4f4f4f" d="M 1642.5,737.5 C 1644.59,738.585 1645.92,740.251 1646.5,742.5C 1644.41,741.415 1643.08,739.749 1642.5,737.5 Z"/></g>
<g><path style="opacity:0.008" fill="#6e6e6e" d="M 1982.5,741.5 C 1982.03,742.906 1981.03,743.573 1979.5,743.5C 1979.97,742.094 1980.97,741.427 1982.5,741.5 Z"/></g>
<g><path style="opacity:0.529" fill="#5f5f5f" d="M 2440.5,740.5 C 2441.91,740.973 2442.57,741.973 2442.5,743.5C 2441.09,743.027 2440.43,742.027 2440.5,740.5 Z"/></g>
<g><path style="opacity:0.733" fill="#505050" d="M 957.5,740.5 C 956.92,742.749 955.587,744.415 953.5,745.5C 954.08,743.251 955.413,741.585 957.5,740.5 Z"/></g>
<g><path style="opacity:0.98" fill="#585858" d="M 3601.5,745.5 C 3607.17,749.167 3611.83,753.833 3615.5,759.5C 3610.5,755.167 3605.83,750.5 3601.5,745.5 Z"/></g>
<g><path style="opacity:0.996" fill="#424242" d="M 953.5,745.5 C 953.262,747.404 952.262,748.738 950.5,749.5C 950.738,747.596 951.738,746.262 953.5,745.5 Z"/></g>
<g><path style="opacity:0.757" fill="#5c5c5c" d="M 1648.5,744.5 C 1649.91,744.973 1650.57,745.973 1650.5,747.5C 1649.09,747.027 1648.43,746.027 1648.5,744.5 Z"/></g>
<g><path style="opacity:0.969" fill="#535353" d="M 2271.5,748.5 C 2275.5,750.5 2278.5,753.5 2280.5,757.5C 2277.17,754.833 2274.17,751.833 2271.5,748.5 Z"/></g>
<g><path style="opacity:0.941" fill="#474747" d="M 1650.5,747.5 C 1652.26,748.262 1653.26,749.596 1653.5,751.5C 1651.74,750.738 1650.74,749.404 1650.5,747.5 Z"/></g>
<g><path style="opacity:0.957" fill="#434343" d="M 950.5,749.5 C 950.262,751.404 949.262,752.738 947.5,753.5C 947.738,751.596 948.738,750.262 950.5,749.5 Z"/></g>
<g><path style="opacity:0.91" fill="#4c4c4c" d="M 1653.5,751.5 C 1655.26,752.262 1656.26,753.596 1656.5,755.5C 1654.74,754.738 1653.74,753.404 1653.5,751.5 Z"/></g>
<g><path style="opacity:0.89" fill="#474747" d="M 947.5,753.5 C 947.573,755.027 946.906,756.027 945.5,756.5C 945.427,754.973 946.094,753.973 947.5,753.5 Z"/></g>
<g><path style="opacity:0.773" fill="#565656" d="M 1656.5,755.5 C 1657.91,755.973 1658.57,756.973 1658.5,758.5C 1657.09,758.027 1656.43,757.027 1656.5,755.5 Z"/></g>
<g><path style="opacity:0.937" fill="#474747" d="M 945.5,756.5 C 945.262,758.404 944.262,759.738 942.5,760.5C 942.738,758.596 943.738,757.262 945.5,756.5 Z"/></g>
<g><path style="opacity:0.773" fill="#545454" d="M 1658.5,758.5 C 1659.91,758.973 1660.57,759.973 1660.5,761.5C 1659.09,761.027 1658.43,760.027 1658.5,758.5 Z"/></g>
<g><path style="opacity:0.663" fill="#5d5d5d" d="M 942.5,760.5 C 942.573,762.027 941.906,763.027 940.5,763.5C 940.427,761.973 941.094,760.973 942.5,760.5 Z"/></g>
<g><path style="opacity:0.761" fill="#555555" d="M 1660.5,761.5 C 1661.91,761.973 1662.57,762.973 1662.5,764.5C 1661.09,764.027 1660.43,763.027 1660.5,761.5 Z"/></g>
<g><path style="opacity:0.008" fill="#686868" d="M 3293.5,762.5 C 3293.57,764.027 3292.91,765.027 3291.5,765.5C 3291.43,763.973 3292.09,762.973 3293.5,762.5 Z"/></g>
<g><path style="opacity:0.008" fill="#696969" d="M 1959.5,763.5 C 1959.57,765.027 1958.91,766.027 1957.5,766.5C 1957.43,764.973 1958.09,763.973 1959.5,763.5 Z"/></g>
<g><path style="opacity:0.024" fill="#666666" d="M 2286.5,763.5 C 2287.91,763.973 2288.57,764.973 2288.5,766.5C 2287.09,766.027 2286.43,765.027 2286.5,763.5 Z"/></g>
<g><path style="opacity:0.024" fill="#676767" d="M 3620.5,764.5 C 3621.91,764.973 3622.57,765.973 3622.5,767.5C 3621.09,767.027 3620.43,766.027 3620.5,764.5 Z"/></g>
<g><path style="opacity:0.631" fill="#5e5e5e" d="M 1662.5,764.5 C 1663.91,764.973 1664.57,765.973 1664.5,767.5C 1663.09,767.027 1662.43,766.027 1662.5,764.5 Z"/></g>
<g><path style="opacity:0.816" fill="#4c4c4c" d="M 939.5,765.5 C 939.573,767.027 938.906,768.027 937.5,768.5C 937.427,766.973 938.094,765.973 939.5,765.5 Z"/></g>
<g><path style="opacity:0.008" fill="#6a6a6a" d="M 3288.5,768.5 C 3288.57,770.027 3287.91,771.027 3286.5,771.5C 3286.43,769.973 3287.09,768.973 3288.5,768.5 Z"/></g>
<g><path style="opacity:0.62" fill="#5c5c5c" d="M 937.5,768.5 C 937.573,770.027 936.906,771.027 935.5,771.5C 935.427,769.973 936.094,768.973 937.5,768.5 Z"/></g>
<g><path style="opacity:0.016" fill="#676767" d="M 1954.5,769.5 C 1954.57,771.027 1953.91,772.027 1952.5,772.5C 1952.43,770.973 1953.09,769.973 1954.5,769.5 Z"/></g>
<g><path style="opacity:0.663" fill="#595959" d="M 1665.5,769.5 C 1666.91,769.973 1667.57,770.973 1667.5,772.5C 1666.09,772.027 1665.43,771.027 1665.5,769.5 Z"/></g>
<g><path style="opacity:0.639" fill="#595959" d="M 933.5,775.5 C 933.573,777.027 932.906,778.027 931.5,778.5C 931.427,776.973 932.094,775.973 933.5,775.5 Z"/></g>
<g><path style="opacity:0.651" fill="#585858" d="M 1669.5,776.5 C 1670.91,776.973 1671.57,777.973 1671.5,779.5C 1670.09,779.027 1669.43,778.027 1669.5,776.5 Z"/></g>
<g><path style="opacity:0.78" fill="#505050" d="M 1502.5,798.5 C 1504.03,798.427 1505.03,799.094 1505.5,800.5C 1503.97,800.573 1502.97,799.906 1502.5,798.5 Z"/></g>
<g><path style="opacity:0.706" fill="#595959" d="M 1505.5,800.5 C 1507.03,800.427 1508.03,801.094 1508.5,802.5C 1506.97,802.573 1505.97,801.906 1505.5,800.5 Z"/></g>
<g><path style="opacity:0.78" fill="#565656" d="M 1508.5,802.5 C 1510.03,802.427 1511.03,803.094 1511.5,804.5C 1509.97,804.573 1508.97,803.906 1508.5,802.5 Z"/></g>
<g><path style="opacity:0.925" fill="#4a4a4a" d="M 1511.5,804.5 C 1513.4,804.738 1514.74,805.738 1515.5,807.5C 1513.6,807.262 1512.26,806.262 1511.5,804.5 Z"/></g>
<g><path style="opacity:0.937" fill="#585858" d="M 1517.5,809.5 C 1519.4,809.738 1520.74,810.738 1521.5,812.5C 1519.6,812.262 1518.26,811.262 1517.5,809.5 Z"/></g>
<g><path style="opacity:0.008" fill="#676767" d="M 1528.5,819.5 C 1529.91,819.973 1530.57,820.973 1530.5,822.5C 1529.09,822.027 1528.43,821.027 1528.5,819.5 Z"/></g>
<g><path style="opacity:0.996" fill="#484848" d="M 3805.5,821.5 C 3806.61,823.599 3807.28,825.933 3807.5,828.5C 3805.84,826.562 3805.17,824.228 3805.5,821.5 Z"/></g>
<g><path style="opacity:1" fill="#424242" d="M 3107.5,822.5 C 3107.83,825.228 3107.16,827.562 3105.5,829.5C 3105.72,826.933 3106.39,824.599 3107.5,822.5 Z"/></g>
<g><path style="opacity:1" fill="#414141" d="M 2473.5,826.5 C 2474.91,829.219 2475.58,832.219 2475.5,835.5C 2474.09,832.781 2473.42,829.781 2473.5,826.5 Z"/></g>
<g><path style="opacity:1" fill="#3d3d3d" d="M 3807.5,830.5 C 3808.91,833.219 3809.58,836.219 3809.5,839.5C 3808.09,836.781 3807.42,833.781 3807.5,830.5 Z"/></g>
<g><path style="opacity:0.957" fill="#434343" d="M 1772.5,830.5 C 1772.58,833.781 1771.91,836.781 1770.5,839.5C 1770.42,836.219 1771.09,833.219 1772.5,830.5 Z"/></g>
<g><path style="opacity:0.996" fill="#484848" d="M 1693.5,835.5 C 1694.61,837.599 1695.28,839.933 1695.5,842.5C 1693.84,840.562 1693.17,838.228 1693.5,835.5 Z"/></g>
<g><path style="opacity:1" fill="#444444" d="M 908.5,837.5 C 908.829,840.228 908.163,842.562 906.5,844.5C 906.721,841.933 907.388,839.599 908.5,837.5 Z"/></g>
<g><path style="opacity:0.957" fill="#414141" d="M 1695.5,844.5 C 1696.91,847.219 1697.58,850.219 1697.5,853.5C 1696.09,850.781 1695.42,847.781 1695.5,844.5 Z"/></g>
<g><path style="opacity:0.922" fill="#474747" d="M 906.5,846.5 C 906.58,849.781 905.913,852.781 904.5,855.5C 904.42,852.219 905.087,849.219 906.5,846.5 Z"/></g>
<g><path style="opacity:0.282" fill="#575757" d="M 3668.5,965.5 C 3668.71,968.495 3668.04,971.162 3666.5,973.5C 3666.57,970.572 3667.23,967.905 3668.5,965.5 Z"/></g>
<g><path style="opacity:0.996" fill="#464646" d="M 1911.5,969.5 C 1912.61,971.599 1913.28,973.933 1913.5,976.5C 1911.84,974.562 1911.17,972.228 1911.5,969.5 Z"/></g>
<g><path style="opacity:1" fill="#414141" d="M 2334.5,969.5 C 2334.83,972.228 2334.16,974.562 2332.5,976.5C 2332.72,973.933 2333.39,971.599 2334.5,969.5 Z"/></g>
<g><path style="opacity:0.541" fill="#5f5f5f" d="M 1057.5,974.5 C 1058.91,974.973 1059.57,975.973 1059.5,977.5C 1058.09,977.027 1057.43,976.027 1057.5,974.5 Z"/></g>
<g><path style="opacity:0.678" fill="#5a5a5a" d="M 1061.5,981.5 C 1062.91,981.973 1063.57,982.973 1063.5,984.5C 1062.09,984.027 1061.43,983.027 1061.5,981.5 Z"/></g>
<g><path style="opacity:0.871" fill="#474747" d="M 1540.5,982.5 C 1540.57,984.027 1539.91,985.027 1538.5,985.5C 1538.43,983.973 1539.09,982.973 1540.5,982.5 Z"/></g>
<g><path style="opacity:0.667" fill="#5d5d5d" d="M 1063.5,984.5 C 1064.91,984.973 1065.57,985.973 1065.5,987.5C 1064.09,987.027 1063.43,986.027 1063.5,984.5 Z"/></g>
<g><path style="opacity:0.898" fill="#464646" d="M 1538.5,985.5 C 1538.57,987.027 1537.91,988.027 1536.5,988.5C 1536.43,986.973 1537.09,985.973 1538.5,985.5 Z"/></g>
<g><path style="opacity:0.812" fill="#535353" d="M 1065.5,987.5 C 1066.91,987.973 1067.57,988.973 1067.5,990.5C 1066.09,990.027 1065.43,989.027 1065.5,987.5 Z"/></g>
<g><path style="opacity:0.749" fill="#505050" d="M 1067.5,990.5 C 1069.59,991.585 1070.92,993.251 1071.5,995.5C 1069.41,994.415 1068.08,992.749 1067.5,990.5 Z"/></g>
<g><path style="opacity:0.929" fill="#4d4d4d" d="M 1532.5,993.5 C 1531.58,996.089 1529.91,998.089 1527.5,999.5C 1528.42,996.911 1530.09,994.911 1532.5,993.5 Z"/></g>
<g><path style="opacity:0.992" fill="#404040" d="M 1522.5,1004.5 C 1521.09,1006.91 1519.09,1008.58 1516.5,1009.5C 1517.91,1007.09 1519.91,1005.42 1522.5,1004.5 Z"/></g>
<g><path style="opacity:0.961" fill="#414141" d="M 1515.5,1010.5 C 1514.74,1012.26 1513.4,1013.26 1511.5,1013.5C 1512.26,1011.74 1513.6,1010.74 1515.5,1010.5 Z"/></g>
<g><path style="opacity:0.984" fill="#404040" d="M 1511.5,1013.5 C 1511.03,1014.91 1510.03,1015.57 1508.5,1015.5C 1508.97,1014.09 1509.97,1013.43 1511.5,1013.5 Z"/></g>
<g><path style="opacity:0.98" fill="#434343" d="M 1508.5,1015.5 C 1508.03,1016.91 1507.03,1017.57 1505.5,1017.5C 1505.97,1016.09 1506.97,1015.43 1508.5,1015.5 Z"/></g>
<g><path style="opacity:0.969" fill="#4b4b4b" d="M 1503.5,1018.5 C 1503.03,1019.91 1502.03,1020.57 1500.5,1020.5C 1500.97,1019.09 1501.97,1018.43 1503.5,1018.5 Z"/></g>
<g><path style="opacity:0.58" fill="#5c5c5c" d="M 3648.5,1023.5 C 3648.57,1025.03 3647.91,1026.03 3646.5,1026.5C 3646.43,1024.97 3647.09,1023.97 3648.5,1023.5 Z"/></g>
<g><path style="opacity:0.561" fill="#5f5f5f" d="M 2311.5,1030.5 C 2311.57,1032.03 2310.91,1033.03 2309.5,1033.5C 2309.43,1031.97 2310.09,1030.97 2311.5,1030.5 Z"/></g>
<g><path style="opacity:0.686" fill="#565656" d="M 3267.5,1030.5 C 3268.91,1030.97 3269.57,1031.97 3269.5,1033.5C 3268.09,1033.03 3267.43,1032.03 3267.5,1030.5 Z"/></g>
<g><path style="opacity:1" fill="#424242" d="M 1470.5,1032.5 C 1468.56,1034.16 1466.23,1034.83 1463.5,1034.5C 1465.6,1033.39 1467.93,1032.72 1470.5,1032.5 Z"/></g>
<g><path style="opacity:0.71" fill="#555555" d="M 1935.5,1032.5 C 1936.91,1032.97 1937.57,1033.97 1937.5,1035.5C 1936.09,1035.03 1935.43,1034.03 1935.5,1032.5 Z"/></g>
<g><path style="opacity:0.592" fill="#5f5f5f" d="M 3643.5,1032.5 C 3643.57,1034.03 3642.91,1035.03 3641.5,1035.5C 3641.43,1033.97 3642.09,1032.97 3643.5,1032.5 Z"/></g>
<g><path style="opacity:0.635" fill="#5c5c5c" d="M 3270.5,1035.5 C 3271.91,1035.97 3272.57,1036.97 3272.5,1038.5C 3271.09,1038.03 3270.43,1037.03 3270.5,1035.5 Z"/></g>
<g><path style="opacity:0.235" fill="#676767" d="M 1229.5,778.5 C 1230.5,865.332 1230.83,952.332 1230.5,1039.5C 1208.33,1039.83 1186.33,1039.5 1164.5,1038.5C 1186.17,1038.5 1207.83,1038.5 1229.5,1038.5C 1229.5,951.833 1229.5,865.167 1229.5,778.5 Z"/></g>
<g><path style="opacity:0.753" fill="#545454" d="M 1938.5,1037.5 C 1939.91,1037.97 1940.57,1038.97 1940.5,1040.5C 1939.09,1040.03 1938.43,1039.03 1938.5,1037.5 Z"/></g>
<g><path style="opacity:0.8" fill="#4f4f4f" d="M 2307.5,1037.5 C 2307.57,1039.03 2306.91,1040.03 2305.5,1040.5C 2305.43,1038.97 2306.09,1037.97 2307.5,1037.5 Z"/></g>
<g><path style="opacity:0.639" fill="#5c5c5c" d="M 3640.5,1037.5 C 3640.57,1039.03 3639.91,1040.03 3638.5,1040.5C 3638.43,1038.97 3639.09,1037.97 3640.5,1037.5 Z"/></g>
<g><path style="opacity:0.635" fill="#5e5e5e" d="M 1940.5,1040.5 C 1941.91,1040.97 1942.57,1041.97 1942.5,1043.5C 1941.09,1043.03 1940.43,1042.03 1940.5,1040.5 Z"/></g>
<g><path style="opacity:0.706" fill="#585858" d="M 2305.5,1040.5 C 2305.57,1042.03 2304.91,1043.03 2303.5,1043.5C 2303.43,1041.97 2304.09,1040.97 2305.5,1040.5 Z"/></g>
<g><path style="opacity:0.812" fill="#4f4f4f" d="M 3273.5,1040.5 C 3274.91,1040.97 3275.57,1041.97 3275.5,1043.5C 3274.09,1043.03 3273.43,1042.03 3273.5,1040.5 Z"/></g>
<g><path style="opacity:0.863" fill="#494949" d="M 3637.5,1042.5 C 3637.57,1044.03 3636.91,1045.03 3635.5,1045.5C 3635.43,1043.97 3636.09,1042.97 3637.5,1042.5 Z"/></g>
<g><path style="opacity:0.635" fill="#5f5f5f" d="M 1942.5,1043.5 C 1943.91,1043.97 1944.57,1044.97 1944.5,1046.5C 1943.09,1046.03 1942.43,1045.03 1942.5,1043.5 Z"/></g>
<g><path style="opacity:0.686" fill="#5b5b5b" d="M 2303.5,1043.5 C 2303.57,1045.03 2302.91,1046.03 2301.5,1046.5C 2301.43,1044.97 2302.09,1043.97 2303.5,1043.5 Z"/></g>
<g><path style="opacity:0.792" fill="#525252" d="M 3275.5,1043.5 C 3276.91,1043.97 3277.57,1044.97 3277.5,1046.5C 3276.09,1046.03 3275.43,1045.03 3275.5,1043.5 Z"/></g>
<g><path style="opacity:0.886" fill="#474747" d="M 3635.5,1045.5 C 3635.57,1047.03 3634.91,1048.03 3633.5,1048.5C 3633.43,1046.97 3634.09,1045.97 3635.5,1045.5 Z"/></g>
<g><path style="opacity:0.714" fill="#5a5a5a" d="M 1944.5,1046.5 C 1945.91,1046.97 1946.57,1047.97 1946.5,1049.5C 1945.09,1049.03 1944.43,1048.03 1944.5,1046.5 Z"/></g>
<g><path style="opacity:0.765" fill="#575757" d="M 2301.5,1046.5 C 2301.57,1048.03 2300.91,1049.03 2299.5,1049.5C 2299.43,1047.97 2300.09,1046.97 2301.5,1046.5 Z"/></g>
<g><path style="opacity:0.851" fill="#4c4c4c" d="M 3277.5,1046.5 C 3278.91,1046.97 3279.57,1047.97 3279.5,1049.5C 3278.09,1049.03 3277.43,1048.03 3277.5,1046.5 Z"/></g>
<g><path style="opacity:0.941" fill="#464646" d="M 3633.5,1048.5 C 3633.26,1050.4 3632.26,1051.74 3630.5,1052.5C 3630.74,1050.6 3631.74,1049.26 3633.5,1048.5 Z"/></g>
<g><path style="opacity:0.835" fill="#505050" d="M 1946.5,1049.5 C 1947.91,1049.97 1948.57,1050.97 1948.5,1052.5C 1947.09,1052.03 1946.43,1051.03 1946.5,1049.5 Z"/></g>
<g><path style="opacity:0.875" fill="#4a4a4a" d="M 2299.5,1049.5 C 2299.57,1051.03 2298.91,1052.03 2297.5,1052.5C 2297.43,1050.97 2298.09,1049.97 2299.5,1049.5 Z"/></g>
<g><path style="opacity:0.933" fill="#484848" d="M 3279.5,1049.5 C 3281.26,1050.26 3282.26,1051.6 3282.5,1053.5C 3280.74,1052.74 3279.74,1051.4 3279.5,1049.5 Z"/></g>
<g><path style="opacity:0.957" fill="#424242" d="M 1948.5,1052.5 C 1950.26,1053.26 1951.26,1054.6 1951.5,1056.5C 1949.74,1055.74 1948.74,1054.4 1948.5,1052.5 Z"/></g>
<g><path style="opacity:0.918" fill="#4c4c4c" d="M 3630.5,1052.5 C 3630.26,1054.4 3629.26,1055.74 3627.5,1056.5C 3627.74,1054.6 3628.74,1053.26 3630.5,1052.5 Z"/></g>
<g><path style="opacity:0.922" fill="#4b4b4b" d="M 3282.5,1053.5 C 3284.26,1054.26 3285.26,1055.6 3285.5,1057.5C 3283.74,1056.74 3282.74,1055.4 3282.5,1053.5 Z"/></g>
<g><path style="opacity:0.992" fill="#424242" d="M 3627.5,1056.5 C 3627.26,1058.4 3626.26,1059.74 3624.5,1060.5C 3624.74,1058.6 3625.74,1057.26 3627.5,1056.5 Z"/></g>
<g><path style="opacity:0.984" fill="#484848" d="M 2293.5,1057.5 C 2293.26,1059.4 2292.26,1060.74 2290.5,1061.5C 2290.74,1059.6 2291.74,1058.26 2293.5,1057.5 Z"/></g>
<g><path style="opacity:0.776" fill="#4d4d4d" d="M 1951.5,1056.5 C 1953.59,1057.58 1954.92,1059.25 1955.5,1061.5C 1953.41,1060.42 1952.08,1058.75 1951.5,1056.5 Z"/></g>
<g><path style="opacity:0.745" fill="#515151" d="M 3285.5,1057.5 C 3287.59,1058.58 3288.92,1060.25 3289.5,1062.5C 3287.41,1061.42 3286.08,1059.75 3285.5,1057.5 Z"/></g>
<g><path style="opacity:0.965" fill="#4e4e4e" d="M 1957.5,1063.5 C 1959.26,1064.26 1960.26,1065.6 1960.5,1067.5C 1958.74,1066.74 1957.74,1065.4 1957.5,1063.5 Z"/></g>
<g><path style="opacity:0.933" fill="#4a4a4a" d="M 3623.5,1061.5 C 3622.92,1063.75 3621.59,1065.42 3619.5,1066.5C 3620.08,1064.25 3621.41,1062.58 3623.5,1061.5 Z"/></g>
<g><path style="opacity:0.008" fill="#686868" d="M 947.5,1064.5 C 948.906,1064.97 949.573,1065.97 949.5,1067.5C 948.094,1067.03 947.427,1066.03 947.5,1064.5 Z"/></g>
<g><path style="opacity:0.937" fill="#565656" d="M 2287.5,1064.5 C 2287.26,1066.4 2286.26,1067.74 2284.5,1068.5C 2284.74,1066.6 2285.74,1065.26 2287.5,1064.5 Z"/></g>
<g><path style="opacity:0.969" fill="#535353" d="M 3291.5,1064.5 C 3293.59,1065.58 3294.92,1067.25 3295.5,1069.5C 3293.41,1068.42 3292.08,1066.75 3291.5,1064.5 Z"/></g>
<g><path style="opacity:0.008" fill="#686868" d="M 950.5,1068.5 C 951.906,1068.97 952.573,1069.97 952.5,1071.5C 951.094,1071.03 950.427,1070.03 950.5,1068.5 Z"/></g>
<g><path style="opacity:0.988" fill="#333333" d="M 2280.5,1072.5 C 2278.17,1076.83 2274.83,1080.17 2270.5,1082.5C 2273.5,1078.83 2276.83,1075.5 2280.5,1072.5 Z"/></g>
<g><path style="opacity:0.024" fill="#666666" d="M 1645.5,1076.5 C 1645.57,1078.03 1644.91,1079.03 1643.5,1079.5C 1643.43,1077.97 1644.09,1076.97 1645.5,1076.5 Z"/></g>
<g><path style="opacity:0.024" fill="#656565" d="M 959.5,1079.5 C 960.906,1079.97 961.573,1080.97 961.5,1082.5C 960.094,1082.03 959.427,1081.03 959.5,1079.5 Z"/></g>
<g><path style="opacity:0.008" fill="#656565" d="M 3309.5,1083.5 C 3311.4,1083.74 3312.74,1084.74 3313.5,1086.5C 3311.6,1086.26 3310.26,1085.26 3309.5,1083.5 Z"/></g>
<g><path style="opacity:1" fill="#343434" d="M 3613.5,1072.5 C 3610.5,1077.5 3606.5,1081.5 3601.5,1084.5C 3605.17,1080.17 3609.17,1076.17 3613.5,1072.5 Z"/></g>
<g><path style="opacity:0.008" fill="#696969" d="M 1639.5,1083.5 C 1639.57,1085.03 1638.91,1086.03 1637.5,1086.5C 1637.43,1084.97 1638.09,1083.97 1639.5,1083.5 Z"/></g>
<g><path style="opacity:0.024" fill="#646464" d="M 1978.5,1085.5 C 1980.03,1085.43 1981.03,1086.09 1981.5,1087.5C 1979.97,1087.57 1978.97,1086.91 1978.5,1085.5 Z"/></g>
<g><path style="opacity:0.976" fill="#434343" d="M 2268.5,1084.5 C 2267.09,1086.91 2265.09,1088.58 2262.5,1089.5C 2263.91,1087.09 2265.91,1085.42 2268.5,1084.5 Z"/></g>
<g><path style="opacity:0.98" fill="#424242" d="M 3600.5,1085.5 C 3599.09,1087.91 3597.09,1089.58 3594.5,1090.5C 3595.91,1088.09 3597.91,1086.42 3600.5,1085.5 Z"/></g>
<g><path style="opacity:0.008" fill="#696969" d="M 3316.5,1089.5 C 3318.03,1089.43 3319.03,1090.09 3319.5,1091.5C 3317.97,1091.57 3316.97,1090.91 3316.5,1089.5 Z"/></g>
<g><path style="opacity:0.008" fill="#646464" d="M 969.5,1090.5 C 971.833,1092.17 973.833,1094.17 975.5,1096.5C 972.5,1095.5 970.5,1093.5 969.5,1090.5 Z"/></g>
<g><path style="opacity:0.941" fill="#474747" d="M 2261.5,1090.5 C 2260.74,1092.26 2259.4,1093.26 2257.5,1093.5C 2258.26,1091.74 2259.6,1090.74 2261.5,1090.5 Z"/></g>
<g><path style="opacity:0.996" fill="#3e3e3e" d="M 3594.5,1090.5 C 3593.42,1092.59 3591.75,1093.92 3589.5,1094.5C 3590.58,1092.41 3592.25,1091.08 3594.5,1090.5 Z"/></g>
<g><path style="opacity:0.941" fill="#464646" d="M 3589.5,1094.5 C 3588.74,1096.26 3587.4,1097.26 3585.5,1097.5C 3586.26,1095.74 3587.6,1094.74 3589.5,1094.5 Z"/></g>
<g><path style="opacity:0.969" fill="#484848" d="M 3585.5,1097.5 C 3585.03,1098.91 3584.03,1099.57 3582.5,1099.5C 3582.97,1098.09 3583.97,1097.43 3585.5,1097.5 Z"/></g>
<g><path style="opacity:0.973" fill="#474747" d="M 2249.5,1099.5 C 2249.03,1100.91 2248.03,1101.57 2246.5,1101.5C 2246.97,1100.09 2247.97,1099.43 2249.5,1099.5 Z"/></g>
<g><path style="opacity:0.937" fill="#515151" d="M 3582.5,1099.5 C 3582.03,1100.91 3581.03,1101.57 3579.5,1101.5C 3579.97,1100.09 3580.97,1099.43 3582.5,1099.5 Z"/></g>
<g><path style="opacity:0.008" fill="#6d6d6d" d="M 1622.5,1101.5 C 1622.03,1102.91 1621.03,1103.57 1619.5,1103.5C 1619.97,1102.09 1620.97,1101.43 1622.5,1101.5 Z"/></g>
<g><path style="opacity:0.965" fill="#4a4a4a" d="M 2246.5,1101.5 C 2246.03,1102.91 2245.03,1103.57 2243.5,1103.5C 2243.97,1102.09 2244.97,1101.43 2246.5,1101.5 Z"/></g>
<g><path style="opacity:0.929" fill="#545454" d="M 3579.5,1101.5 C 3579.03,1102.91 3578.03,1103.57 3576.5,1103.5C 3576.97,1102.09 3577.97,1101.43 3579.5,1101.5 Z"/></g>
<g><path style="opacity:0.937" fill="#565656" d="M 983.5,1104.5 C 985.404,1104.74 986.738,1105.74 987.5,1107.5C 985.596,1107.26 984.262,1106.26 983.5,1104.5 Z"/></g>
<g><path style="opacity:0.976" fill="#464646" d="M 2243.5,1103.5 C 2243.03,1104.91 2242.03,1105.57 2240.5,1105.5C 2240.97,1104.09 2241.97,1103.43 2243.5,1103.5 Z"/></g>
<g><path style="opacity:0.949" fill="#505050" d="M 3576.5,1103.5 C 3576.03,1104.91 3575.03,1105.57 3573.5,1105.5C 3573.97,1104.09 3574.97,1103.43 3576.5,1103.5 Z"/></g>
<g><path style="opacity:0.984" fill="#414141" d="M 3573.5,1105.5 C 3573.03,1106.91 3572.03,1107.57 3570.5,1107.5C 3570.97,1106.09 3571.97,1105.43 3573.5,1105.5 Z"/></g>
<g><path style="opacity:0.953" fill="#4f4f4f" d="M 2238.5,1106.5 C 2238.03,1107.91 2237.03,1108.57 2235.5,1108.5C 2235.97,1107.09 2236.97,1106.43 2238.5,1106.5 Z"/></g>
<g><path style="opacity:0.965" fill="#535353" d="M 989.5,1109.5 C 991.404,1109.74 992.738,1110.74 993.5,1112.5C 991.596,1112.26 990.262,1111.26 989.5,1109.5 Z"/></g>
<g><path style="opacity:0.961" fill="#4d4d4d" d="M 3566.5,1109.5 C 3566.03,1110.91 3565.03,1111.57 3563.5,1111.5C 3563.97,1110.09 3564.97,1109.43 3566.5,1109.5 Z"/></g>
<g><path style="opacity:0.957" fill="#505050" d="M 2231.5,1110.5 C 2231.03,1111.91 2230.03,1112.57 2228.5,1112.5C 2228.97,1111.09 2229.97,1110.43 2231.5,1110.5 Z"/></g>
<g><path style="opacity:0.992" fill="#424242" d="M 993.5,1112.5 C 995.404,1112.74 996.738,1113.74 997.5,1115.5C 995.596,1115.26 994.262,1114.26 993.5,1112.5 Z"/></g>
<g><path style="opacity:1" fill="#3e3e3e" d="M 997.5,1115.5 C 999.404,1115.74 1000.74,1116.74 1001.5,1118.5C 999.596,1118.26 998.262,1117.26 997.5,1115.5 Z"/></g>
<g><path style="opacity:0.949" fill="#454545" d="M 1001.5,1118.5 C 1003.4,1118.74 1004.74,1119.74 1005.5,1121.5C 1003.6,1121.26 1002.26,1120.26 1001.5,1118.5 Z"/></g>
<g><path style="opacity:0.847" fill="#4c4c4c" d="M 1005.5,1121.5 C 1007.03,1121.43 1008.03,1122.09 1008.5,1123.5C 1006.97,1123.57 1005.97,1122.91 1005.5,1121.5 Z"/></g>
<g><path style="opacity:0.863" fill="#4a4a4a" d="M 1008.5,1123.5 C 1010.03,1123.43 1011.03,1124.09 1011.5,1125.5C 1009.97,1125.57 1008.97,1124.91 1008.5,1123.5 Z"/></g>
<g><path style="opacity:0.835" fill="#4b4b4b" d="M 1011.5,1125.5 C 1013.03,1125.43 1014.03,1126.09 1014.5,1127.5C 1012.97,1127.57 1011.97,1126.91 1011.5,1125.5 Z"/></g>
<g><path style="opacity:0.765" fill="#545454" d="M 1014.5,1127.5 C 1016.03,1127.43 1017.03,1128.09 1017.5,1129.5C 1015.97,1129.57 1014.97,1128.91 1014.5,1127.5 Z"/></g>
<g><path style="opacity:0.596" fill="#5f5f5f" d="M 1017.5,1129.5 C 1019.03,1129.43 1020.03,1130.09 1020.5,1131.5C 1018.97,1131.57 1017.97,1130.91 1017.5,1129.5 Z"/></g>
<g><path style="opacity:1" fill="#444444" d="M 2181.5,1130.5 C 2179.56,1132.16 2177.23,1132.83 2174.5,1132.5C 2176.6,1131.39 2178.93,1130.72 2181.5,1130.5 Z"/></g>
<g><path style="opacity:0.008" fill="#686868" d="M 3747.5,1130.5 C 3747.57,1132.03 3746.91,1133.03 3745.5,1133.5C 3745.43,1131.97 3746.09,1130.97 3747.5,1130.5 Z"/></g>
<g><path style="opacity:1" fill="#393939" d="M 3518.5,1129.5 C 3513.9,1131.9 3508.9,1133.24 3503.5,1133.5C 3508.27,1131.72 3513.27,1130.39 3518.5,1129.5 Z"/></g>
<g><path style="opacity:0.565" fill="#5f5f5f" d="M 1022.5,1132.5 C 1024.03,1132.43 1025.03,1133.09 1025.5,1134.5C 1023.97,1134.57 1022.97,1133.91 1022.5,1132.5 Z"/></g>
<g><path style="opacity:0.008" fill="#696969" d="M 1834.5,1133.5 C 1835.91,1133.97 1836.57,1134.97 1836.5,1136.5C 1835.09,1136.03 1834.43,1135.03 1834.5,1133.5 Z"/></g>
<g><path style="opacity:0.008" fill="#676767" d="M 2410.5,1135.5 C 2410.57,1137.03 2409.91,1138.03 2408.5,1138.5C 2408.43,1136.97 2409.09,1135.97 2410.5,1135.5 Z"/></g>
<g><path style="opacity:0.561" fill="#5e5e5e" d="M 1031.5,1137.5 C 1033.03,1137.43 1034.03,1138.09 1034.5,1139.5C 1032.97,1139.57 1031.97,1138.91 1031.5,1137.5 Z"/></g>
<g><path style="opacity:0.008" fill="#676767" d="M 3740.5,1139.5 C 3740.57,1141.03 3739.91,1142.03 3738.5,1142.5C 3738.43,1140.97 3739.09,1139.97 3740.5,1139.5 Z"/></g>
<g><path style="opacity:0.024" fill="#656565" d="M 2406.5,1140.5 C 2406.57,1142.03 2405.91,1143.03 2404.5,1143.5C 2404.43,1141.97 2405.09,1140.97 2406.5,1140.5 Z"/></g>
<g><path style="opacity:0.016" fill="#676767" d="M 1847.5,1149.5 C 1848.91,1149.97 1849.57,1150.97 1849.5,1152.5C 1848.09,1152.03 1847.43,1151.03 1847.5,1149.5 Z"/></g>
<g><path style="opacity:0.016" fill="#686868" d="M 3181.5,1150.5 C 3182.91,1150.97 3183.57,1151.97 3183.5,1153.5C 3182.09,1153.03 3181.43,1152.03 3181.5,1150.5 Z"/></g>
<g><path style="opacity:0.024" fill="#666666" d="M 3729.5,1152.5 C 3729.57,1154.03 3728.91,1155.03 3727.5,1155.5C 3727.43,1153.97 3728.09,1152.97 3729.5,1152.5 Z"/></g>
<g><path style="opacity:0.008" fill="#686868" d="M 2395.5,1153.5 C 2395.57,1155.03 2394.91,1156.03 2393.5,1156.5C 2393.43,1154.97 2394.09,1153.97 2395.5,1153.5 Z"/></g>
<g><path style="opacity:0.008" fill="#646464" d="M 1855.5,1158.5 C 1857.59,1159.58 1858.92,1161.25 1859.5,1163.5C 1857.41,1162.42 1856.08,1160.75 1855.5,1158.5 Z"/></g>
<g><path style="opacity:0.008" fill="#5d5d5d" d="M 3191.5,1161.5 C 3194.9,1163.9 3197.57,1166.9 3199.5,1170.5C 3196.1,1168.1 3193.43,1165.1 3191.5,1161.5 Z"/></g>
<g><path style="opacity:0.996" fill="#464646" d="M 1097.5,1163.5 C 1100.23,1163.17 1102.56,1163.84 1104.5,1165.5C 1101.93,1165.28 1099.6,1164.61 1097.5,1163.5 Z"/></g>
<g><path style="opacity:0.933" fill="#5a5a5a" d="M 3199.5,1170.5 C 3202.76,1172.09 3205.43,1174.43 3207.5,1177.5C 3204.24,1175.91 3201.57,1173.57 3199.5,1170.5 Z"/></g>
<g><path style="opacity:0.957" fill="#575757" d="M 1869.5,1173.5 C 1872.43,1174.76 1874.76,1176.76 1876.5,1179.5C 1873.57,1178.24 1871.24,1176.24 1869.5,1173.5 Z"/></g>
<g><path style="opacity:0.008" fill="#6e6e6e" d="M 2368.5,1181.5 C 2368.03,1182.91 2367.03,1183.57 2365.5,1183.5C 2365.97,1182.09 2366.97,1181.43 2368.5,1181.5 Z"/></g>
<g><path style="opacity:0.976" fill="#4f4f4f" d="M 3212.5,1182.5 C 3214.75,1183.08 3216.42,1184.41 3217.5,1186.5C 3215.25,1185.92 3213.58,1184.59 3212.5,1182.5 Z"/></g>
<g><path style="opacity:0.98" fill="#4f4f4f" d="M 1880.5,1183.5 C 1882.75,1184.08 1884.42,1185.41 1885.5,1187.5C 1883.25,1186.92 1881.58,1185.59 1880.5,1183.5 Z"/></g>
<g><path style="opacity:0.008" fill="#6d6d6d" d="M 3700.5,1182.5 C 3700.03,1183.91 3699.03,1184.57 3697.5,1184.5C 3697.97,1183.09 3698.97,1182.43 3700.5,1182.5 Z"/></g>
<g><path style="opacity:0.945" fill="#515151" d="M 3220.5,1189.5 C 3222.03,1189.43 3223.03,1190.09 3223.5,1191.5C 3221.97,1191.57 3220.97,1190.91 3220.5,1189.5 Z"/></g>
<g><path style="opacity:0.008" fill="#6d6d6d" d="M 3693.5,1188.5 C 3693.03,1189.91 3692.03,1190.57 3690.5,1190.5C 3690.97,1189.09 3691.97,1188.43 3693.5,1188.5 Z"/></g>
<g><path style="opacity:0.929" fill="#555555" d="M 1888.5,1190.5 C 1890.03,1190.43 1891.03,1191.09 1891.5,1192.5C 1889.97,1192.57 1888.97,1191.91 1888.5,1190.5 Z"/></g>
<g><path style="opacity:0.992" fill="#444444" d="M 1892.5,1193.5 C 1894.4,1193.74 1895.74,1194.74 1896.5,1196.5C 1894.6,1196.26 1893.26,1195.26 1892.5,1193.5 Z"/></g>
<g><path style="opacity:0.725" fill="#505050" d="M 3224.5,1192.5 C 3226.75,1193.08 3228.42,1194.41 3229.5,1196.5C 3227.25,1195.92 3225.58,1194.59 3224.5,1192.5 Z"/></g>
<g><path style="opacity:0.996" fill="#414141" d="M 3229.5,1196.5 C 3231.4,1196.74 3232.74,1197.74 3233.5,1199.5C 3231.6,1199.26 3230.26,1198.26 3229.5,1196.5 Z"/></g>
<g><path style="opacity:0.722" fill="#5d5d5d" d="M 1898.5,1198.5 C 1900.03,1198.43 1901.03,1199.09 1901.5,1200.5C 1899.97,1200.57 1898.97,1199.91 1898.5,1198.5 Z"/></g>
<g><path style="opacity:1" fill="#3e3e3e" d="M 3233.5,1199.5 C 3235.4,1199.74 3236.74,1200.74 3237.5,1202.5C 3235.6,1202.26 3234.26,1201.26 3233.5,1199.5 Z"/></g>
<g><path style="opacity:0.922" fill="#4b4b4b" d="M 1901.5,1200.5 C 1903.4,1200.74 1904.74,1201.74 1905.5,1203.5C 1903.6,1203.26 1902.26,1202.26 1901.5,1200.5 Z"/></g>
<g><path style="opacity:0.965" fill="#414141" d="M 3237.5,1202.5 C 3239.4,1202.74 3240.74,1203.74 3241.5,1205.5C 3239.6,1205.26 3238.26,1204.26 3237.5,1202.5 Z"/></g>
<g><path style="opacity:0.878" fill="#494949" d="M 1905.5,1203.5 C 1907.03,1203.43 1908.03,1204.09 1908.5,1205.5C 1906.97,1205.57 1905.97,1204.91 1905.5,1203.5 Z"/></g>
<g><path style="opacity:0.949" fill="#444444" d="M 1908.5,1205.5 C 1910.4,1205.74 1911.74,1206.74 1912.5,1208.5C 1910.6,1208.26 1909.26,1207.26 1908.5,1205.5 Z"/></g>
<g><path style="opacity:0.902" fill="#464646" d="M 3241.5,1205.5 C 3243.03,1205.43 3244.03,1206.09 3244.5,1207.5C 3242.97,1207.57 3241.97,1206.91 3241.5,1205.5 Z"/></g>
<g><path style="opacity:0.949" fill="#454545" d="M 3244.5,1207.5 C 3246.4,1207.74 3247.74,1208.74 3248.5,1210.5C 3246.6,1210.26 3245.26,1209.26 3244.5,1207.5 Z"/></g>
<g><path style="opacity:0.812" fill="#515151" d="M 1912.5,1208.5 C 1914.03,1208.43 1915.03,1209.09 1915.5,1210.5C 1913.97,1210.57 1912.97,1209.91 1912.5,1208.5 Z"/></g>
<g><path style="opacity:0.843" fill="#4c4c4c" d="M 1915.5,1210.5 C 1917.03,1210.43 1918.03,1211.09 1918.5,1212.5C 1916.97,1212.57 1915.97,1211.91 1915.5,1210.5 Z"/></g>
<g><path style="opacity:0.753" fill="#575757" d="M 3248.5,1210.5 C 3250.03,1210.43 3251.03,1211.09 3251.5,1212.5C 3249.97,1212.57 3248.97,1211.91 3248.5,1210.5 Z"/></g>
<g><path style="opacity:0.831" fill="#4c4c4c" d="M 1918.5,1212.5 C 1920.03,1212.43 1921.03,1213.09 1921.5,1214.5C 1919.97,1214.57 1918.97,1213.91 1918.5,1212.5 Z"/></g>
<g><path style="opacity:0.745" fill="#565656" d="M 3251.5,1212.5 C 3253.03,1212.43 3254.03,1213.09 3254.5,1214.5C 3252.97,1214.57 3251.97,1213.91 3251.5,1212.5 Z"/></g>
<g><path style="opacity:0.769" fill="#535353" d="M 1921.5,1214.5 C 1923.03,1214.43 1924.03,1215.09 1924.5,1216.5C 1922.97,1216.57 1921.97,1215.91 1921.5,1214.5 Z"/></g>
<g><path style="opacity:0.667" fill="#5c5c5c" d="M 3254.5,1214.5 C 3256.03,1214.43 3257.03,1215.09 3257.5,1216.5C 3255.97,1216.57 3254.97,1215.91 3254.5,1214.5 Z"/></g>
<g><path style="opacity:0.69" fill="#5a5a5a" d="M 1924.5,1216.5 C 1926.03,1216.43 1927.03,1217.09 1927.5,1218.5C 1925.97,1218.57 1924.97,1217.91 1924.5,1216.5 Z"/></g>
<g><path style="opacity:0.733" fill="#545454" d="M 1929.5,1219.5 C 1931.03,1219.43 1932.03,1220.09 1932.5,1221.5C 1930.97,1221.57 1929.97,1220.91 1929.5,1219.5 Z"/></g>
<g><path style="opacity:0.635" fill="#5d5d5d" d="M 3262.5,1219.5 C 3264.03,1219.43 3265.03,1220.09 3265.5,1221.5C 3263.97,1221.57 3262.97,1220.91 3262.5,1219.5 Z"/></g>
<g><path style="opacity:0.686" fill="#575757" d="M 1934.5,1222.5 C 1936.03,1222.43 1937.03,1223.09 1937.5,1224.5C 1935.97,1224.57 1934.97,1223.91 1934.5,1222.5 Z"/></g>
<g><path style="opacity:0.576" fill="#5e5e5e" d="M 3267.5,1222.5 C 3269.03,1222.43 3270.03,1223.09 3270.5,1224.5C 3268.97,1224.57 3267.97,1223.91 3267.5,1222.5 Z"/></g>
<g><path style="opacity:0.631" fill="#595959" d="M 1941.5,1226.5 C 1943.03,1226.43 1944.03,1227.09 1944.5,1228.5C 1942.97,1228.57 1941.97,1227.91 1941.5,1226.5 Z"/></g>
<g><path style="opacity:0.635" fill="#595959" d="M 3276.5,1227.5 C 3278.03,1227.43 3279.03,1228.09 3279.5,1229.5C 3277.97,1229.57 3276.97,1228.91 3276.5,1227.5 Z"/></g>
<g><path style="opacity:0.996" fill="#474747" d="M 2021.5,1259.5 C 2024.23,1259.17 2026.56,1259.84 2028.5,1261.5C 2025.93,1261.28 2023.6,1260.61 2021.5,1259.5 Z"/></g>
<g><path style="opacity:0.612" fill="#606060" d="M 1166.5,1173.5 C 1187.83,1173.5 1209.17,1173.5 1230.5,1173.5C 1230.5,1202.5 1230.5,1231.5 1230.5,1260.5C 1277.5,1260.5 1324.5,1260.5 1371.5,1260.5C 1324.34,1261.5 1277,1261.83 1229.5,1261.5C 1229.5,1232.5 1229.5,1203.5 1229.5,1174.5C 1208.33,1174.83 1187.33,1174.5 1166.5,1173.5 Z"/></g>
<g><path style="opacity:0.612" fill="#6b6b6b" d="M 2717.5,703.5 C 2718.5,888.999 2718.83,1074.67 2718.5,1260.5C 2765.5,1260.5 2812.5,1260.5 2859.5,1260.5C 2859.5,1074.83 2859.5,889.167 2859.5,703.5C 2859.83,703.5 2860.17,703.5 2860.5,703.5C 2860.5,889.5 2860.5,1075.5 2860.5,1261.5C 2812.83,1261.5 2765.17,1261.5 2717.5,1261.5C 2717.5,1075.5 2717.5,889.5 2717.5,703.5 Z"/></g>
<g><path style="opacity:0.996" fill="#484848" d="M 3358.5,1260.5 C 3361.23,1260.17 3363.56,1260.84 3365.5,1262.5C 3362.93,1262.28 3360.6,1261.61 3358.5,1260.5 Z"/></g>
<g><path style="opacity:0.996" fill="#414141" d="M 2029.5,1261.5 C 2032.78,1261.42 2035.78,1262.09 2038.5,1263.5C 2035.22,1263.58 2032.22,1262.91 2029.5,1261.5 Z"/></g>
<g><path style="opacity:0.957" fill="#424242" d="M 2038.5,1263.5 C 2041.78,1263.42 2044.78,1264.09 2047.5,1265.5C 2044.22,1265.58 2041.22,1264.91 2038.5,1263.5 Z"/></g>
<g><path style="opacity:0.949" fill="#464646" d="M 3371.5,1263.5 C 3374.78,1263.42 3377.78,1264.09 3380.5,1265.5C 3377.22,1265.58 3374.22,1264.91 3371.5,1263.5 Z"/></g>
<g><path style="opacity:0.979" fill="#61ccff" d="M 1479.5,1409.5 C 1539.26,1406.46 1584.76,1430.12 1616,1480.5C 1633.23,1514.64 1637.23,1550.31 1628,1587.5C 1609.1,1646.39 1568.93,1679.89 1507.5,1688C 1457.82,1692.45 1416.32,1676.28 1383,1639.5C 1354.33,1601.5 1345.33,1559.17 1356,1512.5C 1369.73,1464.43 1400.23,1432.27 1447.5,1416C 1458.16,1413.1 1468.83,1410.93 1479.5,1409.5 Z M 1486.5,1462.5 C 1523.61,1461.96 1550.78,1477.96 1568,1510.5C 1581.28,1543.66 1577.95,1574.99 1558,1604.5C 1533.43,1631.8 1503.26,1640.97 1467.5,1632C 1433.9,1620.73 1414.4,1597.56 1409,1562.5C 1404.55,1528.5 1415.38,1500.66 1441.5,1479C 1455.18,1469.61 1470.18,1464.11 1486.5,1462.5 Z"/></g>
<g><path style="opacity:0.977" fill="#61ccff" d="M 938.5,1414.5 C 957.167,1414.5 975.833,1414.5 994.5,1414.5C 994.333,1453.5 994.5,1492.5 995,1531.5C 1026.05,1492.58 1057.21,1453.74 1088.5,1415C 1111.83,1414.33 1135.17,1414.33 1158.5,1415C 1123.11,1458.06 1088.11,1501.39 1053.5,1545C 1090.3,1591.3 1127.3,1637.47 1164.5,1683.5C 1141.17,1684.67 1117.84,1684.83 1094.5,1684C 1061.33,1642.83 1028.17,1601.67 995,1560.5C 994.5,1601.83 994.333,1643.17 994.5,1684.5C 975.833,1684.5 957.167,1684.5 938.5,1684.5C 938.5,1594.5 938.5,1504.5 938.5,1414.5 Z"/></g>
<g><path style="opacity:0.982" fill="#61ccff" d="M 1863.5,1414.5 C 1940.17,1414.5 2016.83,1414.5 2093.5,1414.5C 2093.5,1504.5 2093.5,1594.5 2093.5,1684.5C 2074.83,1684.5 2056.17,1684.5 2037.5,1684.5C 2037.5,1612.17 2037.5,1539.83 2037.5,1467.5C 1998.17,1467.5 1958.83,1467.5 1919.5,1467.5C 1919.5,1539.83 1919.5,1612.17 1919.5,1684.5C 1900.83,1684.5 1882.17,1684.5 1863.5,1684.5C 1863.5,1594.5 1863.5,1504.5 1863.5,1414.5 Z"/></g>
<g><path style="opacity:0.981" fill="#61ccff" d="M 2334.5,1414.5 C 2353.17,1414.5 2371.83,1414.5 2390.5,1414.5C 2391.65,1476.62 2390.15,1538.62 2386,1600.5C 2424.12,1538.41 2462.62,1476.58 2501.5,1415C 2522.83,1414.5 2544.16,1414.33 2565.5,1414.5C 2565.5,1504.5 2565.5,1594.5 2565.5,1684.5C 2546.83,1684.5 2528.17,1684.5 2509.5,1684.5C 2509.33,1645.83 2509.5,1607.17 2510,1568.5C 2511.69,1545.16 2513.02,1521.83 2514,1498.5C 2475.67,1560.17 2437.33,1621.83 2399,1683.5C 2377.58,1684.49 2356.08,1684.83 2334.5,1684.5C 2334.5,1594.5 2334.5,1504.5 2334.5,1414.5 Z"/></g>
<g><path style="opacity:0.985" fill="#61ccff" d="M 2806.5,1414.5 C 2825.17,1414.5 2843.83,1414.5 2862.5,1414.5C 2862.5,1486.5 2862.5,1558.5 2862.5,1630.5C 2898.17,1630.5 2933.83,1630.5 2969.5,1630.5C 2969.5,1558.5 2969.5,1486.5 2969.5,1414.5C 2987.83,1414.5 3006.17,1414.5 3024.5,1414.5C 3024.5,1486.5 3024.5,1558.5 3024.5,1630.5C 3038.17,1630.5 3051.83,1630.5 3065.5,1630.5C 3065.5,1666.17 3065.5,1701.83 3065.5,1737.5C 3046.83,1737.5 3028.17,1737.5 3009.5,1737.5C 3009.5,1719.83 3009.5,1702.17 3009.5,1684.5C 2941.83,1684.5 2874.17,1684.5 2806.5,1684.5C 2806.5,1594.5 2806.5,1504.5 2806.5,1414.5 Z"/></g>
<g><path style="opacity:0.978" fill="#61ccff" d="M 3289.5,1414.5 C 3350.17,1414.5 3410.83,1414.5 3471.5,1414.5C 3471.5,1432.17 3471.5,1449.83 3471.5,1467.5C 3429.5,1467.5 3387.5,1467.5 3345.5,1467.5C 3345.5,1485.17 3345.5,1502.83 3345.5,1520.5C 3384.17,1520.5 3422.83,1520.5 3461.5,1520.5C 3461.5,1538.17 3461.5,1555.83 3461.5,1573.5C 3422.83,1573.5 3384.17,1573.5 3345.5,1573.5C 3345.5,1592.5 3345.5,1611.5 3345.5,1630.5C 3387.5,1630.5 3429.5,1630.5 3471.5,1630.5C 3471.5,1648.5 3471.5,1666.5 3471.5,1684.5C 3410.83,1684.5 3350.17,1684.5 3289.5,1684.5C 3289.5,1594.5 3289.5,1504.5 3289.5,1414.5 Z"/></g>
<g><path style="opacity:0.982" fill="#61ccff" d="M 3699.5,1414.5 C 3718.17,1414.5 3736.83,1414.5 3755.5,1414.5C 3755.5,1449.5 3755.5,1484.5 3755.5,1519.5C 3794.83,1519.5 3834.17,1519.5 3873.5,1519.5C 3873.5,1484.5 3873.5,1449.5 3873.5,1414.5C 3892.17,1414.5 3910.83,1414.5 3929.5,1414.5C 3929.5,1504.5 3929.5,1594.5 3929.5,1684.5C 3910.83,1684.5 3892.17,1684.5 3873.5,1684.5C 3873.5,1647.17 3873.5,1609.83 3873.5,1572.5C 3834.17,1572.5 3794.83,1572.5 3755.5,1572.5C 3755.5,1609.83 3755.5,1647.17 3755.5,1684.5C 3736.83,1684.5 3718.17,1684.5 3699.5,1684.5C 3699.5,1594.5 3699.5,1504.5 3699.5,1414.5 Z"/></g>
<g><path style="opacity:0.984" fill="#61ccff" d="M 4154.5,1414.5 C 4224.5,1414.5 4294.5,1414.5 4364.5,1414.5C 4364.5,1432.17 4364.5,1449.83 4364.5,1467.5C 4338.83,1467.5 4313.17,1467.5 4287.5,1467.5C 4287.5,1539.83 4287.5,1612.17 4287.5,1684.5C 4268.83,1684.5 4250.17,1684.5 4231.5,1684.5C 4231.5,1612.17 4231.5,1539.83 4231.5,1467.5C 4205.83,1467.5 4180.17,1467.5 4154.5,1467.5C 4154.5,1449.83 4154.5,1432.17 4154.5,1414.5 Z"/></g>
<g><path style="opacity:0.988" fill="#61ccff" d="M 4589.5,1414.5 C 4632.5,1414.33 4675.5,1414.5 4718.5,1415C 4770.59,1422.42 4797.25,1452.42 4798.5,1505C 4797.3,1556.19 4771.64,1586.52 4721.5,1596C 4695.86,1597.4 4670.19,1597.9 4644.5,1597.5C 4644.5,1626.5 4644.5,1655.5 4644.5,1684.5C 4626.17,1684.5 4607.83,1684.5 4589.5,1684.5C 4589.5,1594.5 4589.5,1504.5 4589.5,1414.5 Z M 4644.5,1467.5 C 4665.84,1467.33 4687.17,1467.5 4708.5,1468C 4730.61,1471.11 4741.61,1483.77 4741.5,1506C 4741.93,1522.57 4734.6,1534.23 4719.5,1541C 4713.3,1542.84 4706.97,1543.84 4700.5,1544C 4681.84,1544.5 4663.17,1544.67 4644.5,1544.5C 4644.5,1518.83 4644.5,1493.17 4644.5,1467.5 Z"/></g>
</svg>
